<svg xmlns="http://www.w3.org/2000/svg" width="2400" height="1800" xmlns:v="https://vecta.io/nano"><path fill="#0063dc" d="M0 0h2400v1800H0z"/><svg width="2400" height="1800" viewBox="0 0 340 250" preserveAspectRatio="xMidYMid meet" color-interpolation-filters="sRGB"><g fill="#feffff"><path stroke-width="2" fill-opacity="0" stroke="#feffff" d="M61.06 100.892h217.88v48.217H61.06z"/><path fill-opacity="0" d="M168.94 100.892h110v48.217h-110z"/><g transform="translate(173.94 105.892)"><svg filter="url(#A)" width="100" height="38.217" overflow="visible"><svg viewBox="2.382999897003174 31.802993774414062 95.23301696777344 36.39501190185547"><path d="M97.178 39.828l-.057-.031c-1.029-.578-1.943-.523-2.596.128-.484.483-1.32.701-2.205.564a4.4 4.4 0 0 0-.633-.041c-.742 0-1.654.124-2.24.218.475-.886.617-1.71.746-2.45.111-.646.217-1.257.523-1.848.402-.775.633-.902.926-1.063.248-.136.529-.29.912-.758.389-.477.553-.902.49-1.267-.059-.337-.293-.488-.318-.504l-.037-.018c-.539-.225-1.105-.36-1.744-.414l-.664-.026c-.994 0-2.094.156-3.486.354l-6.84.679c-7.064.294-23.566 2.286-23.732 2.306-.549.065-1.178.166-1.854.299-1.264-.235-3.092-.744-4.728-1.835-2.147-1.432-3.702-2.318-4.816-2.318-.543 0-.974.211-1.278.627-.324.442-.504 1.25-.731 2.274-.426 1.918-1.01 4.545-2.926 5.514l-1.261.639 1.409-.125c.009 0 .949-.082 2.079-.082l.273.001c-2.663 1.078-5.719 2.236-8.205 3.17-.029.01-.058.021-.086.032l-.351.131-1.207.452-.315.118-.762.274-.361.121-.398.131-.504.157-.244.074-.617.179-.063.018-.612.165c-1.156-.141-2.011-.405-2.409-.745-.599-.511-1.534-1.191-2.722-1.191-.421 0-.854.085-1.288.252-.881.339-.878.898-.836 1.123.136.732 1.218 1.398 2.228 1.355a2.03 2.03 0 0 1 .755.105l-1.065.15c-.018.002-.035.005-.053.007l-.568.063-.217.02c-.119.012-.235.021-.351.03l-.389.026-.156.009-.498.019-.146.003c-.189.002-.371.001-.543-.002l-.245-.01-.153-.008-.221-.017-.25-.027-.1-.013a4.31 4.31 0 0 1-.291-.048c-.709-.144-1.427-.535-2.15-1.093-1.59-1.229-3.199-3.266-4.772-5.257l-.575-.726c-2.506-3.151-6.618-3.187-6.792-3.187h-.37l.264.892C5.88 41.206 6.396 42.94 6.29 50.792c-.108 8.037-3.393 11.864-3.425 11.902l-.482.546.722-.097c4.056-.546 8.863-3.729 11.063-5.521.116-.096.232-.187.347-.274 1.728-1.31 3.377-1.805 5.912-1.805.418 0 .875.013 1.397.039.101.005.211.017.325.029a1.61 1.61 0 0 1 .094.012 6.08 6.08 0 0 1 .343.051c.036.006.074.014.111.021.094.017.19.036.29.057a6.44 6.44 0 0 0 .148.031 14.91 14.91 0 0 1 .403.093c.041.009.084.021.126.03l.432.11c.017.005.032.009.049.012a65.21 65.21 0 0 1 1.903.543c-1.386.174-2.547.085-2.553.085l-.588-.049.345.479c3.524 4.896 10.091 8.735 10.157 8.773l.147.085.141-.095c1.73-1.162 2.362-1.986 3.224-4.197.396-1.017.986-1.645 1.44-2.003 1.288.166 2.491.242 3.606.226l6.727-.184c-.346.172-.58.243-.584.245l-.143.043-.041.144c-.391 1.368.019 2.707 1.185 3.872 1.115 1.115 1.629 3.73 1.635 3.758l.086.445.353-.285c1.338-1.083 2.799-3.372 2.998-5.647.104-1.176.311-2.271.48-3.037l.496-.06h0l1.377-.176.271-.039 1.111-.165.477-.077.926-.158.594-.109.838-.162.637-.13.834-.182.621-.141.93-.228.525-.13 1.469-.395.857-.249.404-.121.434-.132.564-.176.217-.068a99.19 99.19 0 0 0 5.547-1.953c1.857 1.195 4.031 4.343 4.053 4.375l.188.271.23-.234c1.99-2.02 1.816-5.392 1.604-6.95l.131-.06c2.641-1.194 4.889-2.335 6.414-3.227.033-.021.066-.039.1-.06l.229-.136.322-.195c1.969-1.232 3.912-2.71 5.475-3.898 1.039-.792 1.939-1.476 2.578-1.883.352-.226.701-.428 1.012-.606.896-.521 1.492-.864 1.488-1.339-.003-.319-.286-.518-.438-.608zm-55.063.278a28.95 28.95 0 0 0-1.135.024c1.478-1.303 1.983-3.578 2.367-5.308.205-.923.382-1.72.639-2.07.203-.277.469-.405.839-.405.974 0 2.509.891 4.514 2.227 1.266.844 2.632 1.352 3.792 1.659-1.77.435-3.695 1.087-5.279 1.975-.925.518-2.455 1.203-4.257 1.952a19.08 19.08 0 0 0-1.48-.054zm-18.504 5.816c-.784.033-1.593-.497-1.67-.91-.046-.249.245-.417.497-.514.371-.144.738-.216 1.092-.216.998 0 1.79.566 2.369 1.061.354.301.899.507 1.472.65-.708.163-1.414.309-2.104.433a2.59 2.59 0 0 0-1.656-.504zm12.803 15.533c-.796 2.044-1.352 2.799-2.877 3.846-.95-.572-6.287-3.894-9.503-8.078.698.011 1.918-.023 3.181-.301l.257.079c3.047.928 6.639 2.011 10.187 2.544-.433.423-.905 1.036-1.245 1.91zm17.227.763c-.166 1.911-1.335 3.889-2.463 4.973-.207-.845-.738-2.638-1.681-3.581-.992-.991-1.355-2.068-1.081-3.201.258-.095.82-.333 1.435-.784 1.413-.082 2.825-.191 4.243-.339-.164.768-.356 1.813-.453 2.932zm24.457-4.053c-.551-.766-2.152-2.893-3.697-4.025a119.98 119.98 0 0 0 4.947-2.066c.181 1.463.281 4.284-1.25 6.091zm17.756-16.86c-.314.182-.67.387-1.033.618-.281.18-.613.412-.979.68a97.65 97.65 0 0 0-1.635 1.229c-1.553 1.181-3.486 2.651-5.434 3.869l-.32.196-.273.161c-.018.01-.035.021-.053.032-1.615.939-4.035 2.152-6.67 3.338l-.189.084v.001c-3.354 1.496-7.287 3.055-11.154 4.288l-.252.081-.535.166-.453.138-.389.117-.863.25-1.471.396-.5.124-.961.232-.582.133-.883.191-.582.119-.9.174-.523.095-.998.172-.393.063-1.178.175-.191.026c-4.855.664-9.544.805-14.499.877-.295.003-.593.001-.893-.007l-.052-.003c-.284-.009-.569-.022-.856-.041l-.028-.003c-4.246-.289-8.778-1.664-12.501-2.797-2.086-.635-3.809-1.159-5.051-1.359-.01-.002-.02-.003-.03-.005-.075-.012-.15-.022-.222-.032-.031-.005-.061-.007-.092-.011-.051-.007-.102-.013-.151-.018a5.01 5.01 0 0 0-.232-.018c-.531-.026-.997-.04-1.425-.04-2.05 0-3.853.286-5.772 1.583a11.87 11.87 0 0 0-.831.618c-2.036 1.66-6.337 4.53-10.123 5.293.931-1.348 3.045-5.12 3.134-11.693l.008-.726.005-1.35c-.01-6.208-.536-7.98-1.574-11.476l-.051-.172c1.048.088 4.076.548 5.995 2.962l.574.725c2.349 2.972 4.778 6.046 7.242 6.546a5.14 5.14 0 0 0 .314.052c.043.007.088.013.134.019.063.008.129.014.195.021.319.031.67.049 1.059.049h0c1.404 0 3.146-.199 4.979-.544l.127-.021-.003-.002a43.77 43.77 0 0 0 3.838-.918c.039-.01.078-.022.117-.034l.725-.218.237-.074.618-.203.236-.08.803-.288.304-.113.903-.338c.021-.007.042-.015.062-.023l.312-.117 10.066-3.919.716-.297-.01-.001c1.401-.599 2.58-1.142 3.35-1.574 1.88-1.052 4.261-1.767 6.257-2.172h.004l.051-.01c.482-.096.893-.166 1.23-.217l.113-.017.146-.021.367-.048c.166-.02 16.646-2.008 23.691-2.302 2.93-.123 5.127-.433 6.893-.684 1.371-.194 2.455-.348 3.41-.348.834 0 1.523.123 2.166.384.02.019.053.063.063.141.002.014.004.03.004.049-.002.112-.047.309-.262.607-.035.05-.074.103-.119.159a3.15 3.15 0 0 1-.221.243c-.201.202-.363.29-.531.382-.344.188-.668.367-1.146 1.289-.303.582-.426 1.153-.533 1.749l-.045.256c-.15.872-.307 1.773-.977 2.762l-.369.546.646-.126c.018-.003 1.609-.311 2.73-.311.215 0 .4.011.549.034 1.059.162 2.068-.113 2.674-.718.48-.481 1.141-.489 1.945-.039.188.105.213.169.215.169-.017.171-.709.573-1.214.865z"/><path d="M67.596 46.414l.717-.271.738-.208c.248-.066.502-.108.756-.148.252-.049.51-.062.766-.093l.773-.04.775.008.777.047.775.08.775.117.781.091.799.071c.266.03.537.022.805.026l.803-.063a2.59 2.59 0 0 0 .77-.216c-.254.076-.518.087-.779.081-.26.001-.52-.03-.779-.06l-.768-.138-.766-.174-.779-.169-.793-.106-.799-.083-.803-.047-.807-.009-.807.042-.805.098-.797.156a7.44 7.44 0 0 0-.783.22c-.264.072-.51.192-.766.29s-.488.24-.732.359l-.695.43-.344.212.346.237 1.672 1.254 1.545 1.396.682.769c.213.264.398.546.543.834.045.071.066.146.094.219l.086.24c.057.169.094.327.207.527l.076.142.096.125.098.125.123.107.129.101.148.078c.096.058.203.077.309.106.432.09.838-.01 1.191-.151s.676-.343.973-.565.576-.488.813-.737l.734-.768c.256-.241.473-.518.701-.785l.693-.792.361-.38.377-.367.389-.354.416-.326-.467.255c-.158.085-.299.192-.447.291l-.432.316-.42.331-.809.696-.395.355c-.131.121-.246.254-.367.385l-.727.761c-.248.264-.477.479-.75.684-.266.199-.551.374-.848.495s-.611.184-.875.125c-.262-.053-.473-.245-.605-.497-.068-.104-.123-.289-.178-.455l-.092-.257c-.033-.093-.064-.187-.113-.268-.09-.165-.172-.339-.281-.486l-.324-.447a10.18 10.18 0 0 0-.719-.813c-.504-.514-1.041-.987-1.592-1.437l-1.375-1.042.318-.194.688-.336z"/><circle cx="86.416" cy="36.615" r=".911"/><path d="M75.963 43.239c.098.265.223.503.361.708.064.104.143.195.211.282l.221.227.213.175.195.128c.113.081.221.116.285.152l.102.049-.086-.074c-.055-.049-.141-.112-.234-.212-.1-.091-.203-.217-.32-.358l-.162-.242-.154-.283a3.93 3.93 0 0 1-.244-.676c-.063-.249-.111-.515-.145-.797s-.049-.576-.066-.876l-.023-.92c.006-.276.035-.563.123-.84.074-.278.176-.55.291-.81l.361-.738.369-.647.848-1.309s-.498.393-1.102 1.129l-.461.616-.447.742c-.135.271-.275.555-.365.871-.104.309-.15.649-.162.995.018.628.043 1.267.16 1.862.049.297.135.582.231.846z"/><path d="M85.42 46.722l-.59.032-.605.024-.605.012c-.197-.008-.395.005-.584-.004l-.547-.022-.492-.034-.416-.046c-.127-.012-.232-.037-.322-.049l-.287-.04.252.143c.082.04.182.104.301.147l.41.151c.152.049.318.089.498.131s.367.07.566.097l.611.054.631.005.629-.043.605-.082c.389-.06.746-.148 1.051-.236.607-.173.986-.367.986-.367l-1.041.061-1.051.066z"/></svg></svg><defs><filter id="A"><feColorMatrix values="0 0 0 0 0.9921875  0 0 0 0 0.99609375  0 0 0 0 0.99609375  0 0 0 1 0"/></filter></defs></g><path d="M168.94 100.892h2v48.217h-2zm-95.29 25.09q-2.23 0-3.96-.99-1.73-.98-2.68-2.75-.95-1.76-.95-4.01h0q0-2.29.99-4.06 1-1.78 2.72-2.75 1.72-.97 3.82-.97h0q1.68 0 2.95.41 1.27.41 2.43 1.14h0q.18.09.31.31.13.21.13.47h0q0 .37-.25.63-.25.26-.66.26h0q-.24 0-.46-.11h0q-1.01-.61-2.03-.91-1.02-.3-2.21-.3h0q-1.64 0-2.96.69-1.32.69-2.07 2.02-.74 1.33-.74 3.17h0q0 1.69.7 3.02.7 1.33 2.03 2.1 1.33.77 3.15.77h0q2.04 0 3.79-.96h0v-3.91h-3.57q-.37 0-.63-.26-.26-.26-.26-.63h0q0-.37.26-.63.26-.25.63-.25h0 4.26q.43 0 .73.3.31.3.31.73h0v4.91q0 .46-.23.82-.23.35-.59.52h0q-2.43 1.22-4.96 1.22h0zm10.28-.11q-.41 0-.7-.28-.28-.28-.28-.7h0v-14.03q0-.41.28-.71.29-.29.7-.29h0q.43 0 .71.28.28.28.28.72h0v14.03q0 .42-.29.7-.29.28-.7.28h0zm9.34.11q-2.64 0-4.12-1.51-1.48-1.5-1.48-4.23h0q0-1.53.56-2.83.56-1.3 1.73-2.1 1.17-.8 2.88-.8h0q1.6 0 2.77.75 1.17.74 1.77 1.99.61 1.24.61 2.71h0q0 .41-.27.7-.27.28-.73.28h0-7.33q.17 1.51 1.12 2.35.96.85 2.66.85h0q.91 0 1.59-.18.69-.17 1.33-.49h0q.18-.09.39-.09h0q.35 0 .61.24.26.24.26.6h0q0 .48-.56.8h0q-.85.48-1.67.72-.82.24-2.12.24h0zm-3.61-6.64h6.38q-.06-1.06-.55-1.78-.49-.71-1.2-1.05-.72-.33-1.45-.33h0q-.74 0-1.45.33-.71.34-1.19 1.05-.48.72-.54 1.78h0zm11.9 6.53q-.41 0-.7-.28-.28-.28-.28-.7h0v-9.27q0-.42.28-.71.29-.29.7-.29h0q.41 0 .7.29.29.29.29.71h0v.88q.82-.91 1.77-1.45.96-.54 2.25-.54h0q1.19 0 2.07.56.88.57 1.34 1.54.47.97.47 2.14h0v6.14q0 .42-.3.7-.29.28-.7.28h0q-.41 0-.69-.28-.28-.28-.28-.7h0v-5.92q0-2.64-2.38-2.64h0q-1.08 0-1.94.56-.85.56-1.61 1.52h0v6.48q0 .42-.29.7-.29.28-.7.28h0zm17.86.11q-2.12 0-3.7-1.65h0v.56q0 .42-.29.7-.29.28-.7.28h0q-.41 0-.69-.28-.28-.28-.28-.7h0v-14.03q0-.41.28-.71.28-.29.69-.29h0q.43 0 .71.28.28.28.28.72h0v5.3q1.58-1.65 3.7-1.65h0q1.34 0 2.54.68 1.21.68 1.95 1.99.75 1.31.75 3.06h0q0 1.76-.75 3.06-.74 1.31-1.95 1.99-1.2.69-2.54.69h0zm-.28-1.84q1.6 0 2.58-1.02.97-1.02.97-2.88h0q0-1.86-.97-2.87-.98-1.02-2.58-1.02h0q-.99 0-1.87.44-.88.45-1.55 1.18h0v4.55q.67.73 1.55 1.17.88.45 1.87.45h0zm13.2 1.84q-2.64 0-4.12-1.51-1.49-1.5-1.49-4.23h0q0-1.53.57-2.83.56-1.3 1.73-2.1 1.17-.8 2.87-.8h0q1.61 0 2.77.75 1.17.74 1.78 1.99.6 1.24.6 2.71h0q0 .41-.27.7-.27.28-.72.28h0-7.34q.18 1.51 1.13 2.35.95.85 2.66.85h0q.91 0 1.59-.18.68-.17 1.33-.49h0q.17-.09.39-.09h0q.35 0 .61.24.25.24.25.6h0q0 .48-.56.8h0q-.84.48-1.66.72-.83.24-2.12.24h0zm-3.62-6.64h6.39q-.07-1.06-.56-1.78-.48-.71-1.2-1.05-.71-.33-1.45-.33h0q-.73 0-1.44.33-.72.34-1.19 1.05-.48.72-.55 1.78h0zm11.9 6.53q-.41 0-.69-.28-.28-.28-.28-.7h0v-9.27q0-.42.28-.71.28-.29.69-.29h0q.41 0 .7.29.3.29.3.71h0v.93q1.51-2.04 3.39-2.04h0 .11q.41 0 .68.28.27.28.27.7h0q0 .41-.28.67-.28.26-.71.26h0-.11q-1.04 0-1.9.5-.87.51-1.45 1.4h0v6.57q0 .42-.3.7-.29.28-.7.28h0zm11.12.11q-3.16 0-3.16-2.86h0v-6.7h-1.53q-.18 0-.3-.12-.11-.12-.11-.3h0q0-.21.19-.36h0l2.94-2.88q.2-.19.37-.19h0q.17 0 .29.12.12.13.12.31h0v1.73h2.44q.37 0 .61.24.24.23.24.6h0q0 .35-.24.6-.24.25-.61.25h0-2.44v6.53q0 .84.4 1.07.4.23 1.01.23h0q.43 0 .86-.13h0q.09-.03.19-.05.09-.02.24-.02h0q.31 0 .54.23.24.23.24.55h0q0 .5-.49.76h0q-.85.39-1.8.39h0zm8.03 0q-2.17 0-3.94-.98h0q-.37-.26-.37-.71h0q0-.35.24-.61.24-.26.6-.26h0q.2 0 .39.09h0q.7.3 1.39.48.69.17 1.56.17h0q2.4 0 2.4-1.54h0q0-.49-.56-.75-.55-.26-1.8-.59h0q-1.28-.3-2.11-.62-.83-.33-1.43-.99-.59-.66-.59-1.74h0q0-1.51 1.09-2.47 1.09-.95 3.13-.95h0q1.66 0 3.13.54h0q.3.09.47.33.16.24.16.49h0q0 .35-.25.61-.25.26-.62.26h0q-.1 0-.28-.04h0q-1.25-.39-2.46-.39h0q-1.17 0-1.83.42-.66.42-.66 1.09h0q0 .65.6.95.61.31 1.89.59h0q1.27.32 2.07.64.8.31 1.38.98.57.67.57 1.79h0q0 1.39-1.09 2.3-1.09.91-3.08.91h0zm-64.03 14.016v-7.87h4.54v.84h-3.54v2.66h3v.84h-3v3.53h-1zm5.93 0v-7.87h.99v7.87h-.99zm2.58-1.02l.6-.7q.42.45.99.72.57.27 1.18.27h0q.78 0 1.21-.36.43-.35.43-.93h0q0-.3-.1-.51-.1-.21-.27-.36-.18-.15-.42-.27-.24-.12-.51-.25h0l-1.13-.49q-.28-.12-.57-.29-.28-.17-.51-.41-.23-.24-.37-.57-.15-.33-.15-.76h0q0-.44.19-.83.18-.38.51-.66.33-.28.78-.44.45-.16.99-.16h0q.71 0 1.31.27.6.27 1.02.71h0l-.54.64q-.36-.34-.8-.54-.43-.2-.99-.2h0q-.66 0-1.06.31-.4.3-.4.84h0q0 .29.11.49.12.2.31.35.19.15.42.26.23.11.47.21h0l1.11.48q.34.14.64.33.3.19.52.43.21.25.34.58.12.33.12.76h0q0 .47-.18.88-.19.4-.54.71-.34.31-.84.48-.49.17-1.11.17h0q-.83 0-1.54-.31-.71-.31-1.22-.85h0zm6.98 1.02v-7.87h1v3.3h3.66v-3.3h1.01v7.87h-1.01v-3.71h-3.66v3.71h-1zm9.79-3.94h0q0-.94.27-1.7.26-.76.73-1.28.47-.53 1.11-.81.64-.29 1.4-.29h0q.72 0 1.26.3.54.29.89.68h0l-.57.63q-.31-.33-.69-.53-.38-.2-.88-.2h0q-.56 0-1.02.22-.46.22-.78.64-.32.41-.5 1-.18.59-.18 1.32h0q0 .74.17 1.34.17.59.49 1.01.31.42.76.65.45.23 1.01.23h0q.58 0 1-.23.43-.23.81-.65h0l.57.61q-.47.54-1.06.84-.59.3-1.34.3h0q-.75 0-1.38-.27-.63-.28-1.09-.8-.46-.52-.72-1.28-.26-.77-.26-1.73zm9.87 4.08h0q-.75 0-1.36-.28-.62-.29-1.07-.83-.44-.53-.69-1.29-.24-.76-.24-1.71h0q0-.95.24-1.7.25-.75.69-1.27.45-.52 1.07-.8.61-.28 1.36-.28h0q.74 0 1.36.29.62.28 1.07.8.45.52.69 1.27.25.75.25 1.69h0q0 .95-.25 1.71-.24.76-.69 1.29-.45.54-1.07.83-.62.28-1.36.28zm0-.87h0q.53 0 .95-.23.43-.23.73-.65.31-.43.48-1.02.17-.6.17-1.34h0q0-.73-.17-1.32-.17-.59-.48-1-.3-.41-.73-.63-.42-.22-.95-.22h0q-.53 0-.96.22-.42.22-.73.63-.3.41-.47 1-.17.59-.17 1.32h0q0 .74.17 1.34.17.59.47 1.02.31.42.73.65.43.23.96.23z"/></g></svg></svg>