<svg version="1.1" id="Layer_1" xmlns="http://www.w3.org/2000/svg" xmlns:xlink="http://www.w3.org/1999/xlink" x="0px" y="0px"
	 width="100%" viewBox="0 0 792 540" enable-background="new 0 0 792 540" xml:space="preserve">
<path fill="#FEFFFF" opacity="1.000000" stroke="none" 
	d="
M793.000000,199.000000 
	C793.000000,313.333313 793.000000,427.166626 793.000000,541.000000 
	C529.000061,541.000000 265.000092,541.000000 1.000101,541.000000 
	C1.000068,361.000061 1.000068,181.000137 1.000034,1.000150 
	C264.999908,1.000100 528.999817,1.000100 792.999878,1.000050 
	C793.000000,66.833336 793.000000,132.666672 793.000000,199.000000 
M778.000000,240.500000 
	C778.000000,165.755173 778.000000,91.010353 778.000000,16.301666 
	C523.675842,16.301666 269.987640,16.301666 16.317804,16.301666 
	C16.317804,127.313522 16.317804,238.023361 16.317804,348.698364 
	C270.323975,348.698364 524.012207,348.698364 778.000000,348.698364 
	C778.000000,312.765045 778.000000,277.132507 778.000000,240.500000 
M574.500000,364.000153 
	C388.444336,364.000153 202.388657,364.000153 16.311596,364.000153 
	C16.311596,418.287292 16.311596,472.004242 16.311596,525.715210 
	C270.304443,525.715210 523.985535,525.715210 777.688354,525.715210 
	C777.688354,471.712860 777.688354,417.995911 777.688354,364.000153 
	C710.084778,364.000153 642.792358,364.000153 574.500000,364.000153 
z"/>
<path fill="#47704C" opacity="1.000000" stroke="none" 
	d="
M778.000000,241.000000 
	C778.000000,277.132507 778.000000,312.765045 778.000000,348.698364 
	C524.012207,348.698364 270.323975,348.698364 16.317804,348.698364 
	C16.317804,238.023361 16.317804,127.313522 16.317804,16.301666 
	C269.987640,16.301666 523.675842,16.301666 778.000000,16.301666 
	C778.000000,91.010353 778.000000,165.755173 778.000000,241.000000 
M355.153290,44.028934 
	C349.882568,45.510078 347.313080,49.359081 346.005371,54.367790 
	C343.345886,64.554039 340.912476,74.809731 337.885254,84.886398 
	C335.294220,93.511162 330.750519,100.927368 322.333618,105.313492 
	C319.324371,106.881645 316.503876,108.811996 312.703186,111.119926 
	C320.423248,110.700363 327.008423,110.342484 333.593597,109.984596 
	C333.641083,110.442688 333.688568,110.900772 333.736053,111.358856 
	C332.938843,111.864754 332.198792,112.516678 331.335785,112.854530 
	C319.420227,117.519386 307.555267,122.325203 295.542908,126.728310 
	C279.271332,132.692642 262.930328,138.478714 246.510300,144.018768 
	C242.753494,145.286316 238.496780,145.946808 234.568192,145.638229 
	C227.599762,145.090912 222.000687,141.245178 216.349274,137.135925 
	C208.314209,131.293503 198.664902,129.741135 189.223297,134.977310 
	C183.315750,138.253555 182.997269,144.608810 188.684387,148.224106 
	C192.057724,150.368530 195.756729,152.000671 199.309296,153.863159 
	C190.795349,154.999924 182.218353,155.251083 173.668228,154.881439 
	C170.036896,154.724457 166.285141,153.700485 162.893311,152.320419 
	C151.368362,147.631226 143.303314,138.451157 135.340576,129.503387 
	C127.038490,120.174286 119.788734,109.917770 111.750900,100.342049 
	C102.579460,89.415848 90.289757,83.422951 76.708847,80.146248 
	C71.033806,78.777016 65.057426,78.656746 58.955856,77.937714 
	C60.010303,81.607620 60.686367,84.445770 61.636002,87.189232 
	C69.467941,109.815414 72.180756,133.311005 72.900185,157.032715 
	C73.535591,177.983902 73.070282,198.948898 68.989204,219.638733 
	C66.088898,234.342361 61.991673,248.639465 54.102173,261.572418 
	C50.994331,266.666962 47.782280,271.697876 44.473797,276.987823 
	C45.857315,276.987823 47.178410,277.178650 48.426865,276.958191 
	C60.458076,274.833435 72.077240,271.452576 83.093002,266.018250 
	C99.348587,257.998993 115.134888,249.265289 129.035217,237.474884 
	C141.759933,226.681610 156.494125,220.856689 173.117798,220.046127 
	C185.332123,219.450531 197.291931,221.197784 208.947037,224.944733 
	C211.171463,225.659866 213.409927,226.331375 215.641907,227.023010 
	C215.540314,227.201599 215.438721,227.380173 215.337128,227.558746 
	C208.963531,227.558746 202.589935,227.558746 194.822327,227.558746 
	C201.816833,235.872330 207.746262,244.138474 214.912979,251.137726 
	C224.422379,260.424927 234.569885,269.143921 245.059692,277.315674 
	C253.758377,284.092133 263.278564,289.835480 272.628448,295.729279 
	C273.900299,296.531006 276.635529,296.140076 278.120453,295.294983 
	C289.277557,288.945221 295.301666,278.578888 300.052185,267.099976 
	C301.948212,262.518494 304.676636,258.204681 307.517273,254.109711 
	C311.366058,248.561493 316.499786,252.202499 321.380737,252.379654 
	C334.934998,252.871613 348.524323,252.625626 362.094086,252.368210 
	C369.178497,252.233810 376.250824,251.461685 383.004669,250.999756 
	C382.281891,252.530075 381.494843,253.846634 381.016541,255.267151 
	C378.378296,263.102753 380.709412,270.316986 385.196686,276.455933 
	C390.976624,284.363312 397.282166,291.831329 399.823730,301.564728 
	C400.876862,305.597748 401.826538,309.657837 402.838257,313.766479 
	C412.688507,309.017365 422.117889,294.649017 425.790558,281.598724 
	C428.462158,272.105682 429.170837,262.072815 431.134857,252.357468 
	C431.531342,250.396133 433.399200,247.499542 434.990479,247.204987 
	C449.399292,244.537903 463.927185,242.523270 478.363373,239.993301 
	C509.956238,234.456635 540.146484,224.094269 570.148132,213.081192 
	C571.810486,212.470978 574.708801,212.538528 575.825806,213.581863 
	C581.756348,219.120956 587.508789,224.887604 592.914246,230.940384 
	C597.201050,235.740555 600.899231,241.066330 605.076599,246.438828 
	C619.763489,230.752213 621.146484,212.107178 618.841003,192.493912 
	C620.075806,192.135437 621.036987,191.990097 621.879028,191.592392 
	C644.238770,181.032272 666.565857,170.395706 686.685486,155.795029 
	C701.716248,144.887299 716.584961,133.755203 731.673340,122.928596 
	C736.407654,119.531494 741.694824,116.915634 746.592346,113.732010 
	C750.650696,111.093872 751.514709,106.072235 748.219849,103.833534 
	C742.048706,99.640549 733.793152,97.718613 726.891846,103.449677 
	C724.484192,105.449104 721.353149,107.604721 718.439209,107.777451 
	C709.142822,108.328522 699.793213,107.981773 691.369202,107.981773 
	C692.794922,101.829475 694.352600,94.892479 696.017883,87.981430 
	C697.751160,80.788284 699.969360,73.983223 706.770813,69.566940 
	C709.688538,67.672440 712.259705,64.914520 714.292969,62.054569 
	C718.801208,55.713257 716.587097,51.071884 709.136353,48.918709 
	C699.861877,46.238503 690.519043,47.307541 681.320862,48.199383 
	C667.199707,49.568542 653.232788,52.559502 639.107910,53.851559 
	C621.709595,55.443062 604.212952,55.941772 586.765625,57.023109 
	C577.901062,57.572510 569.035522,58.203022 560.199219,59.085800 
	C548.637268,60.240887 537.112488,61.764866 525.555481,62.975540 
	C514.785645,64.103760 503.984436,64.933853 493.215576,66.070526 
	C481.826447,67.272659 470.458466,68.675560 459.082703,70.003075 
	C452.905731,70.723900 446.618134,70.967476 440.584625,72.330223 
	C432.720337,74.106491 425.344147,73.687485 417.592224,71.394135 
	C404.543640,67.533829 393.706604,59.817497 382.362213,52.894711 
	C374.269745,47.956387 366.167145,42.914284 355.153290,44.028934 
z"/>
<path fill="#47704C" opacity="1.000000" stroke="none" 
	d="
M575.000000,364.000153 
	C642.792358,364.000153 710.084778,364.000153 777.688354,364.000153 
	C777.688354,417.995911 777.688354,471.712860 777.688354,525.715210 
	C523.985535,525.715210 270.304443,525.715210 16.311596,525.715210 
	C16.311596,472.004242 16.311596,418.287292 16.311596,364.000153 
	C202.388657,364.000153 388.444336,364.000153 575.000000,364.000153 
M649.184143,431.628876 
	C653.168091,431.618469 657.162415,431.778931 661.132568,431.539612 
	C663.932678,431.370850 667.304749,432.547180 669.756287,428.752625 
	C672.980103,422.665192 670.532349,418.157318 663.826721,418.021271 
	C658.590698,417.915070 653.350769,418.000000 647.999817,418.000000 
	C647.999817,413.934875 648.170715,410.604797 647.920715,407.306580 
	C647.811707,405.868347 647.151978,403.682983 646.177002,403.308411 
	C645.074646,402.884796 642.939026,403.708252 641.940002,404.689331 
	C634.845337,411.656372 627.926758,418.802673 620.296936,426.252045 
	C619.282410,429.014008 620.417114,431.143188 623.054016,431.395142 
	C626.320801,431.707306 629.678772,431.063995 633.741211,431.316925 
	C633.827515,447.794556 633.889893,464.272339 634.011536,480.749695 
	C634.061157,487.464050 636.745605,493.175171 642.919617,495.784821 
	C650.618408,499.038940 658.862732,499.154877 666.944519,496.538879 
	C671.577454,495.039246 674.026062,491.695404 672.700012,488.443024 
	C671.005981,484.287872 668.008179,483.418671 663.566772,484.632446 
	C652.775330,487.581604 648.000244,483.692688 648.000061,472.557739 
	C647.999817,460.233765 647.967468,447.909576 648.042358,435.586029 
	C648.051453,434.095154 648.640747,432.607819 649.184143,431.628876 
M272.867859,461.986053 
	C274.237579,460.568268 276.466583,459.344513 276.837646,457.701202 
	C279.263336,446.958008 271.652496,429.591492 262.271393,423.009338 
	C254.291534,417.410339 245.361343,416.392609 236.051636,417.023712 
	C226.072372,417.700165 217.961136,421.906677 211.967438,430.083832 
	C204.549164,440.204498 203.111374,451.755249 204.057480,463.742889 
	C205.077347,476.665344 210.568802,487.078247 222.232529,493.678619 
	C232.782761,499.648895 244.291702,498.482941 255.500717,497.511200 
	C260.582825,497.070618 265.683685,494.307800 270.261414,491.696381 
	C272.438171,490.454590 274.791534,486.933136 274.526978,484.752228 
	C274.278137,482.700958 270.898956,480.647034 268.479492,479.412720 
	C267.372162,478.847809 265.230988,480.161438 263.613281,480.768524 
	C251.130005,485.452789 238.818939,487.242188 226.941193,479.004913 
	C222.107666,475.652832 218.405212,467.220459 220.565933,463.077942 
	C231.133957,463.153259 241.704346,463.393677 252.269165,463.243652 
	C258.885559,463.149719 265.493622,462.468292 272.867859,461.986053 
M106.188225,450.652985 
	C114.805191,450.808228 123.422157,450.963440 132.826813,451.463287 
	C132.884460,458.956451 132.794724,466.455078 133.070389,473.940216 
	C133.184830,477.047455 132.211334,478.840790 129.315918,479.973724 
	C117.353661,484.654327 105.124352,486.143494 92.755348,482.239746 
	C76.413651,477.082245 68.011932,464.795013 66.121826,448.763428 
	C64.632240,436.128906 67.245903,424.110718 76.144356,414.474274 
	C89.252655,400.278839 109.779808,399.515625 126.911865,406.427979 
	C130.809296,408.000458 134.590561,409.955963 138.604477,411.114227 
	C141.759857,412.024719 144.849472,410.681335 145.723740,407.326172 
	C146.552246,404.146667 146.273148,401.024139 142.679565,398.871643 
	C127.716431,389.908936 111.805153,385.861481 94.428963,389.016876 
	C78.082024,391.985443 65.570587,400.324371 57.917675,415.405396 
	C51.896709,427.270416 49.979801,439.595062 51.879986,452.884521 
	C54.799232,473.301025 67.221573,490.124268 86.795341,495.697296 
	C104.857681,500.839996 122.704262,498.622131 139.716125,490.146729 
	C144.167465,487.929016 145.966232,484.736267 145.984665,480.159241 
	C146.030975,468.662994 146.030960,457.166351 145.986542,445.670105 
	C145.964966,440.084717 143.857681,438.033600 138.175812,438.010712 
	C128.512314,437.971771 118.845474,438.139221 109.186531,437.925720 
	C105.731232,437.849335 103.036263,438.957855 102.177261,442.071167 
	C101.274864,445.341797 101.992210,448.633942 106.188225,450.652985 
M402.000000,423.070282 
	C402.000000,412.408966 402.013611,401.747650 401.993805,391.086365 
	C401.984924,386.313416 399.852417,384.110382 395.239349,384.000793 
	C390.657623,383.891907 388.043762,386.130920 388.034912,390.748566 
	C387.971466,423.898499 387.973145,457.048706 388.032928,490.198639 
	C388.041138,494.756348 391.018158,497.860657 394.894653,497.909729 
	C399.024323,497.962006 401.872498,494.745239 402.010864,489.917633 
	C402.034851,489.081726 402.200378,488.249847 402.346924,487.029999 
	C419.202515,504.380951 446.975861,500.878021 459.122589,481.361145 
	C464.456909,472.790131 465.718079,463.496948 465.144287,453.499023 
	C464.529205,442.781464 461.019379,433.634644 453.010468,426.613647 
	C442.758484,417.626373 430.939270,413.908417 417.651947,418.849854 
	C412.206024,420.875153 407.194672,424.068970 402.000000,426.723877 
	C402.000000,426.196869 402.000000,425.071106 402.000000,423.070282 
M485.042084,433.755371 
	C480.505493,443.155396 478.908386,452.919037 479.870056,463.423950 
	C481.109955,476.968323 486.800629,487.281586 498.767365,493.965515 
	C509.027557,499.696259 520.289856,498.582642 531.109253,497.557556 
	C536.897644,497.009125 542.526855,493.294281 547.900391,490.400330 
	C551.233887,488.605072 550.863281,484.699249 549.267761,482.056061 
	C547.627258,479.338257 544.722656,478.585022 541.143921,479.849121 
	C535.990967,481.669250 530.622253,483.141083 525.223999,483.955780 
	C507.242889,486.669617 495.796448,477.169220 494.621460,463.604095 
	C511.347992,463.604095 528.122559,463.927826 544.869995,463.396179 
	C549.564087,463.247192 554.042786,460.295746 553.013428,453.918945 
	C552.598022,451.345734 552.456299,448.725067 551.976318,446.166107 
	C549.382874,432.340515 541.599792,421.889862 528.166382,418.444092 
	C511.995667,414.296234 497.266296,415.985687 485.042084,433.755371 
M365.000000,460.500122 
	C365.000000,455.336487 365.061279,450.171936 364.987061,445.009369 
	C364.838776,434.699707 361.182739,425.941742 352.052032,420.679657 
	C341.401733,414.541870 330.432281,415.384674 319.990540,421.572418 
	C316.185974,423.827026 312.829987,426.838562 309.305786,429.477448 
	C308.987946,426.476166 309.332855,423.425659 308.256744,421.007568 
	C306.518646,417.102081 302.130768,417.089783 299.181763,418.340790 
	C297.166412,419.195740 295.212921,422.864838 295.178436,425.303375 
	C294.871918,446.953125 294.987793,468.608978 295.010071,490.263062 
	C295.014709,494.756744 297.790527,497.797058 301.831940,497.909149 
	C306.033386,498.025665 308.985596,494.802185 308.992889,489.982239 
	C309.013306,476.490112 308.986664,462.997925 309.019196,449.505859 
	C309.022736,448.048950 308.739136,446.097351 309.528015,445.216614 
	C314.606140,439.547485 319.526123,433.493256 327.301910,431.334351 
	C336.560760,428.763672 345.460175,431.189484 348.145081,437.891907 
	C349.855652,442.162079 350.749603,447.002167 350.875977,451.617767 
	C351.231445,464.600464 350.978485,477.599335 351.013184,490.591675 
	C351.023682,494.517487 354.170410,497.899902 357.598785,497.849731 
	C361.818542,497.788025 364.969482,494.714783 364.987183,490.483124 
	C365.027527,480.822266 364.999969,471.161072 365.000000,460.500122 
M721.044495,497.995331 
	C727.888733,496.572235 734.798279,494.344757 738.649963,488.424805 
	C747.503174,474.817474 742.635986,459.391998 727.013306,454.912048 
	C718.783386,452.552063 710.689087,449.721344 702.520325,447.144836 
	C699.256348,446.115326 696.356567,444.101318 697.220276,440.636932 
	C697.922668,437.819611 700.026306,434.664886 702.441772,433.103973 
	C707.502319,429.833801 713.359375,429.199615 719.381470,430.666809 
	C723.319763,431.626312 727.333191,432.296356 731.332947,432.979401 
	C735.626648,433.712738 738.963135,432.432068 739.917542,427.809235 
	C740.819214,423.441986 737.643005,421.379578 734.342468,420.222015 
	C723.602478,416.455322 712.467957,415.542297 701.412354,418.125610 
	C688.092407,421.237976 681.038818,432.021423 683.161377,445.680878 
	C684.437012,453.889954 690.766846,458.424011 698.156555,460.974335 
	C705.947876,463.663239 714.008057,465.564331 721.856140,468.102203 
	C724.853638,469.071564 728.241516,470.469055 728.520813,474.254791 
	C728.809204,478.164215 726.548096,481.302124 723.153625,482.773346 
	C720.100647,484.096558 716.455872,485.198456 713.261047,484.816803 
	C706.208130,483.974182 699.303040,481.962219 692.276428,480.795715 
	C689.729309,480.372864 686.393616,480.075195 684.491760,481.337982 
	C680.333984,484.098724 681.435181,489.269562 686.205627,492.038788 
	C696.787170,498.181366 708.416626,498.308990 721.044495,497.995331 
M185.000000,480.484985 
	C184.999969,450.860321 184.926361,421.235260 185.086761,391.611450 
	C185.108459,387.601440 183.136673,384.934937 180.034958,384.327606 
	C177.584290,383.847809 173.946716,385.011292 172.173141,386.783173 
	C170.527939,388.426758 170.096405,391.840729 170.084930,394.479279 
	C169.951767,425.101929 169.999634,455.725372 170.000427,486.348602 
	C170.000458,487.347107 169.903946,488.359558 170.032928,489.341797 
	C170.699799,494.419739 174.137604,498.311096 177.594437,497.980865 
	C182.645096,497.498383 184.997681,494.476532 184.999847,488.467560 
	C185.000687,486.137543 185.000000,483.807495 185.000000,480.484985 
M571.000000,424.888977 
	C571.000000,446.555542 570.993896,468.222107 571.005005,489.888672 
	C571.007324,494.406128 573.731140,497.729584 577.410095,497.795105 
	C581.988220,497.876678 584.991821,494.684723 584.996033,489.672729 
	C585.007568,475.839478 584.938538,462.005585 585.075439,448.173676 
	C585.093140,446.380493 585.729370,444.305389 586.770508,442.858398 
	C592.347900,435.106934 599.948914,431.104034 609.606018,430.953522 
	C613.739136,430.889099 617.080261,427.367950 616.908508,423.794006 
	C616.732361,420.128021 613.280029,416.677582 609.345459,417.110168 
	C605.384521,417.545685 601.137817,418.153748 597.710205,419.984955 
	C593.162842,422.414429 589.288513,426.103699 585.202515,429.192963 
	C584.606934,419.753754 583.827087,418.268799 579.238831,418.000580 
	C573.691833,417.676300 571.889709,418.984497 571.000000,424.888977 
z"/>
<path fill="#FEFFFF" opacity="1.000000" stroke="none" 
	d="
M355.586731,44.016235 
	C366.167145,42.914284 374.269745,47.956387 382.362213,52.894711 
	C393.706604,59.817497 404.543640,67.533829 417.592224,71.394135 
	C425.344147,73.687485 432.720337,74.106491 440.584625,72.330223 
	C446.618134,70.967476 452.905731,70.723900 459.082703,70.003075 
	C470.458466,68.675560 481.826447,67.272659 493.215576,66.070526 
	C503.984436,64.933853 514.785645,64.103760 525.555481,62.975540 
	C537.112488,61.764866 548.637268,60.240887 560.199219,59.085800 
	C569.035522,58.203022 577.901062,57.572510 586.765625,57.023109 
	C604.212952,55.941772 621.709595,55.443062 639.107910,53.851559 
	C653.232788,52.559502 667.199707,49.568542 681.320862,48.199383 
	C690.519043,47.307541 699.861877,46.238503 709.136353,48.918709 
	C716.587097,51.071884 718.801208,55.713257 714.292969,62.054569 
	C712.259705,64.914520 709.688538,67.672440 706.770813,69.566940 
	C699.969360,73.983223 697.751160,80.788284 696.017883,87.981430 
	C694.352600,94.892479 692.794922,101.829475 691.369202,107.981773 
	C699.793213,107.981773 709.142822,108.328522 718.439209,107.777451 
	C721.353149,107.604721 724.484192,105.449104 726.891846,103.449677 
	C733.793152,97.718613 742.048706,99.640549 748.219849,103.833534 
	C751.514709,106.072235 750.650696,111.093872 746.592346,113.732010 
	C741.694824,116.915634 736.407654,119.531494 731.673340,122.928596 
	C716.584961,133.755203 701.716248,144.887299 686.685486,155.795029 
	C666.565857,170.395706 644.238770,181.032272 621.879028,191.592392 
	C621.036987,191.990097 620.075806,192.135437 618.841003,192.493912 
	C621.146484,212.107178 619.763489,230.752213 605.076599,246.438828 
	C600.899231,241.066330 597.201050,235.740555 592.914246,230.940384 
	C587.508789,224.887604 581.756348,219.120956 575.825806,213.581863 
	C574.708801,212.538528 571.810486,212.470978 570.148132,213.081192 
	C540.146484,224.094269 509.956238,234.456635 478.363373,239.993301 
	C463.927185,242.523270 449.399292,244.537903 434.990479,247.204987 
	C433.399200,247.499542 431.531342,250.396133 431.134857,252.357468 
	C429.170837,262.072815 428.462158,272.105682 425.790558,281.598724 
	C422.117889,294.649017 412.688507,309.017365 402.838257,313.766479 
	C401.826538,309.657837 400.876862,305.597748 399.823730,301.564728 
	C397.282166,291.831329 390.976624,284.363312 385.196686,276.455933 
	C380.709412,270.316986 378.378296,263.102753 381.016541,255.267151 
	C381.494843,253.846634 382.281891,252.530075 383.004669,250.999756 
	C376.250824,251.461685 369.178497,252.233810 362.094086,252.368210 
	C348.524323,252.625626 334.934998,252.871613 321.380737,252.379654 
	C316.499786,252.202499 311.366058,248.561493 307.517273,254.109711 
	C304.676636,258.204681 301.948212,262.518494 300.052185,267.099976 
	C295.301666,278.578888 289.277557,288.945221 278.120453,295.294983 
	C276.635529,296.140076 273.900299,296.531006 272.628448,295.729279 
	C263.278564,289.835480 253.758377,284.092133 245.059692,277.315674 
	C234.569885,269.143921 224.422379,260.424927 214.912979,251.137726 
	C207.746262,244.138474 201.816833,235.872330 194.822327,227.558746 
	C202.589935,227.558746 208.963531,227.558746 215.337128,227.558746 
	C215.438721,227.380173 215.540314,227.201599 215.641907,227.023010 
	C213.409927,226.331375 211.171463,225.659866 208.947037,224.944733 
	C197.291931,221.197784 185.332123,219.450531 173.117798,220.046127 
	C156.494125,220.856689 141.759933,226.681610 129.035217,237.474884 
	C115.134888,249.265289 99.348587,257.998993 83.093002,266.018250 
	C72.077240,271.452576 60.458076,274.833435 48.426865,276.958191 
	C47.178410,277.178650 45.857315,276.987823 44.473797,276.987823 
	C47.782280,271.697876 50.994331,266.666962 54.102173,261.572418 
	C61.991673,248.639465 66.088898,234.342361 68.989204,219.638733 
	C73.070282,198.948898 73.535591,177.983902 72.900185,157.032715 
	C72.180756,133.311005 69.467941,109.815414 61.636002,87.189232 
	C60.686367,84.445770 60.010303,81.607620 58.955856,77.937714 
	C65.057426,78.656746 71.033806,78.777016 76.708847,80.146248 
	C90.289757,83.422951 102.579460,89.415848 111.750900,100.342049 
	C119.788734,109.917770 127.038490,120.174286 135.340576,129.503387 
	C143.303314,138.451157 151.368362,147.631226 162.893311,152.320419 
	C166.285141,153.700485 170.036896,154.724457 173.668228,154.881439 
	C182.218353,155.251083 190.795349,154.999924 199.309296,153.863159 
	C195.756729,152.000671 192.057724,150.368530 188.684387,148.224106 
	C182.997269,144.608810 183.315750,138.253555 189.223297,134.977310 
	C198.664902,129.741135 208.314209,131.293503 216.349274,137.135925 
	C222.000687,141.245178 227.599762,145.090912 234.568192,145.638229 
	C238.496780,145.946808 242.753494,145.286316 246.510300,144.018768 
	C262.930328,138.478714 279.271332,132.692642 295.542908,126.728310 
	C307.555267,122.325203 319.420227,117.519386 331.335785,112.854530 
	C332.198792,112.516678 332.938843,111.864754 333.736053,111.358856 
	C333.688568,110.900772 333.641083,110.442688 333.593597,109.984596 
	C327.008423,110.342484 320.423248,110.700363 312.703186,111.119926 
	C316.503876,108.811996 319.324371,106.881645 322.333618,105.313492 
	C330.750519,100.927368 335.294220,93.511162 337.885254,84.886398 
	C340.912476,74.809731 343.345886,64.554039 346.005371,54.367790 
	C347.313080,49.359081 349.882568,45.510078 355.586731,44.016235 
M205.573776,158.001266 
	C195.278351,160.163452 184.787354,160.789307 174.421661,159.776047 
	C168.160233,159.163986 161.518127,157.393936 156.086548,154.312164 
	C141.051697,145.781677 130.820618,131.965347 120.020645,118.924629 
	C111.910591,109.131920 105.012917,98.176605 93.370644,91.896873 
	C84.899918,87.327843 76.056152,84.059464 65.398354,83.998474 
	C76.455978,111.542053 76.998962,139.963165 77.827698,168.241730 
	C78.188889,180.566803 77.134827,192.995346 75.857239,205.286835 
	C74.834984,215.121887 73.379021,225.085358 70.532089,234.513702 
	C66.904533,246.527313 61.681751,258.059235 57.127647,269.847931 
	C57.270256,269.847931 58.438534,270.115570 59.427917,269.807892 
	C74.715347,265.054138 89.208649,258.451385 102.608238,249.746323 
	C112.567329,243.276352 121.963226,235.943527 131.666763,229.075226 
	C147.219070,218.067093 164.527771,214.910919 183.420288,215.716888 
	C198.083710,216.342422 211.558411,220.697464 225.296402,224.678299 
	C238.363968,228.464874 251.332047,232.659683 264.534332,235.898712 
	C278.871704,239.416199 293.361084,242.436371 307.913574,244.912949 
	C317.906921,246.613647 328.103546,247.365387 338.242798,247.875290 
	C344.804108,248.205261 351.425049,247.314697 358.020813,247.003738 
	C372.376587,246.326874 386.752045,245.936874 401.084412,244.930893 
	C415.151306,243.943542 429.228271,242.742477 443.202667,240.893478 
	C457.719788,238.972641 472.391388,237.202332 486.508514,233.506317 
	C509.518341,227.482086 532.266907,220.356827 554.879944,212.946091 
	C583.595886,203.535278 611.192444,191.306168 638.297119,177.964569 
	C655.825684,169.336563 672.864746,159.982132 688.583557,148.220520 
	C704.341003,136.429932 720.571167,125.269592 736.645996,113.906288 
	C739.442627,111.929321 742.496033,110.315498 746.426697,107.929451 
	C740.242676,105.542603 735.404907,102.834656 730.792297,106.894958 
	C725.946777,111.160286 720.679321,113.512260 714.236511,113.015587 
	C711.111511,112.774696 707.945862,111.867180 704.888977,112.171074 
	C696.954285,112.959877 689.069763,114.252708 680.443970,115.444000 
	C687.085632,106.177368 689.776733,96.375183 691.294800,85.868156 
	C692.413025,78.129417 695.687927,70.499474 702.854980,66.192558 
	C707.207275,63.577099 710.242615,60.479118 712.230530,54.937637 
	C707.079956,53.938431 702.050659,52.023125 697.094666,52.196957 
	C686.791687,52.558327 676.521545,53.970387 666.248840,55.053692 
	C651.056519,56.655796 635.890320,58.527790 620.680115,59.928272 
	C612.591553,60.673023 604.431274,60.615627 596.308289,61.018974 
	C591.182800,61.273487 586.055725,61.599087 580.948242,62.089584 
	C571.650696,62.982479 562.372986,64.082565 553.075989,64.981567 
	C545.054382,65.757240 537.001343,66.225746 528.991150,67.096703 
	C518.264465,68.263000 507.577789,69.795792 496.851746,70.968559 
	C486.241089,72.128723 475.585175,72.882828 464.981995,74.101326 
	C455.430145,75.199005 445.905609,76.571640 436.399872,78.024948 
	C421.585022,80.289963 407.196838,84.281944 393.480988,90.274902 
	C375.474091,98.142776 357.985016,107.272072 339.724762,114.466782 
	C308.846619,126.633057 277.711578,138.211639 246.326920,148.996719 
	C233.524231,153.396255 219.788422,155.080444 205.573776,158.001266 
M249.537689,237.001724 
	C235.551666,231.153061 221.242035,229.597229 206.618515,233.883743 
	C207.900772,235.557281 209.143494,237.500977 210.694962,239.155060 
	C228.985489,258.655426 249.153381,275.897430 272.223969,289.536835 
	C273.660370,290.386078 276.591248,290.114716 278.100677,289.185303 
	C284.084503,285.500916 288.142792,280.092712 291.125153,273.677612 
	C294.864716,265.633789 299.079468,257.810883 302.841125,250.382431 
	C285.753418,246.050888 268.059326,241.565643 249.537689,237.001724 
M373.609619,53.933830 
	C369.578247,52.285046 365.538635,50.655979 361.517578,48.982441 
	C356.556732,46.917801 353.804535,49.661636 351.906494,53.629150 
	C350.663910,56.226555 349.667816,59.016396 349.053833,61.827602 
	C345.748779,76.959747 342.873718,92.230606 332.304626,104.583115 
	C339.075653,104.583115 345.735962,105.678986 351.826172,104.284645 
	C358.328278,102.795990 364.261810,98.886925 370.497131,96.156853 
	C383.401611,90.506737 396.321075,84.889488 409.284088,79.375580 
	C411.920929,78.253990 414.776764,77.647217 417.836945,76.709572 
	C413.479553,75.149246 409.426544,74.267380 405.947693,72.345963 
	C395.299866,66.465004 384.872589,60.184685 373.609619,53.933830 
M418.553497,286.947754 
	C424.722992,274.779236 423.426849,261.085846 426.887482,248.382004 
	C417.108093,248.945312 407.678314,248.903427 398.425629,250.162781 
	C385.536133,251.917160 381.505280,261.233276 388.145660,272.396118 
	C388.479431,272.957123 389.030487,273.385101 389.396881,273.931091 
	C393.557526,280.131073 398.029816,286.154816 401.723480,292.622681 
	C403.825317,296.303070 404.647552,300.714233 406.542786,306.246490 
	C410.799377,299.350006 414.438019,293.454681 418.553497,286.947754 
M615.000000,203.661240 
	C614.675781,200.901520 614.351624,198.141785 613.994080,195.097946 
	C602.039062,200.101349 590.747253,204.827148 580.150208,209.262222 
	C588.504517,218.566940 597.095459,228.135208 605.676575,237.692551 
	C612.308838,228.516449 615.000000,218.978897 615.000000,203.661240 
M195.365921,137.926788 
	C193.314209,139.112823 191.262497,140.298859 189.210785,141.484894 
	C190.848907,143.190002 192.247284,145.286240 194.197769,146.481766 
	C195.888275,147.517960 198.198898,147.560272 200.245697,147.993362 
	C203.388031,148.658218 206.891083,148.617126 209.614014,150.059448 
	C215.460403,153.156189 220.511688,150.104080 225.895569,149.483826 
	C222.265671,146.929016 218.856293,144.634567 215.560745,142.186844 
	C209.687668,137.824692 203.173630,136.322464 195.365921,137.926788 
z"/>
<path fill="#FEFFFF" opacity="1.000000" stroke="none" 
	d="
M105.892334,450.048462 
	C101.992210,448.633942 101.274864,445.341797 102.177261,442.071167 
	C103.036263,438.957855 105.731232,437.849335 109.186531,437.925720 
	C118.845474,438.139221 128.512314,437.971771 138.175812,438.010712 
	C143.857681,438.033600 145.964966,440.084717 145.986542,445.670105 
	C146.030960,457.166351 146.030975,468.662994 145.984665,480.159241 
	C145.966232,484.736267 144.167465,487.929016 139.716125,490.146729 
	C122.704262,498.622131 104.857681,500.839996 86.795341,495.697296 
	C67.221573,490.124268 54.799232,473.301025 51.879986,452.884521 
	C49.979801,439.595062 51.896709,427.270416 57.917675,415.405396 
	C65.570587,400.324371 78.082024,391.985443 94.428963,389.016876 
	C111.805153,385.861481 127.716431,389.908936 142.679565,398.871643 
	C146.273148,401.024139 146.552246,404.146667 145.723740,407.326172 
	C144.849472,410.681335 141.759857,412.024719 138.604477,411.114227 
	C134.590561,409.955963 130.809296,408.000458 126.911865,406.427979 
	C109.779808,399.515625 89.252655,400.278839 76.144356,414.474274 
	C67.245903,424.110718 64.632240,436.128906 66.121826,448.763428 
	C68.011932,464.795013 76.413651,477.082245 92.755348,482.239746 
	C105.124352,486.143494 117.353661,484.654327 129.315918,479.973724 
	C132.211334,478.840790 133.184830,477.047455 133.070389,473.940216 
	C132.794724,466.455078 132.884460,458.956451 132.341660,450.885925 
	C123.201782,450.221863 114.547058,450.135162 105.892334,450.048462 
z"/>
<path fill="#FEFFFF" opacity="1.000000" stroke="none" 
	d="
M402.000000,423.507812 
	C402.000000,425.071106 402.000000,426.196869 402.000000,426.723877 
	C407.194672,424.068970 412.206024,420.875153 417.651947,418.849854 
	C430.939270,413.908417 442.758484,417.626373 453.010468,426.613647 
	C461.019379,433.634644 464.529205,442.781464 465.144287,453.499023 
	C465.718079,463.496948 464.456909,472.790131 459.122589,481.361145 
	C446.975861,500.878021 419.202515,504.380951 402.346924,487.029999 
	C402.200378,488.249847 402.034851,489.081726 402.010864,489.917633 
	C401.872498,494.745239 399.024323,497.962006 394.894653,497.909729 
	C391.018158,497.860657 388.041138,494.756348 388.032928,490.198639 
	C387.973145,457.048706 387.971466,423.898499 388.034912,390.748566 
	C388.043762,386.130920 390.657623,383.891907 395.239349,384.000793 
	C399.852417,384.110382 401.984924,386.313416 401.993805,391.086365 
	C402.013611,401.747650 402.000000,412.408966 402.000000,423.507812 
M422.783569,431.000122 
	C417.232697,433.457611 411.544983,435.654022 406.180145,438.466431 
	C402.729218,440.275513 401.697693,443.630188 401.900909,447.710052 
	C402.256348,454.845093 401.931610,462.011780 402.054596,469.162384 
	C402.080933,470.693878 402.338959,472.626007 403.274384,473.673187 
	C410.707977,481.995056 422.834412,486.806702 434.836060,483.175385 
	C445.438354,479.967438 448.811951,471.717865 450.734222,462.374298 
	C452.408661,454.235352 449.047150,439.977295 440.165222,434.601501 
	C435.008850,431.480652 429.550598,430.541473 422.783569,431.000122 
z"/>
<path fill="#FEFFFF" opacity="1.000000" stroke="none" 
	d="
M485.227417,433.425568 
	C497.266296,415.985687 511.995667,414.296234 528.166382,418.444092 
	C541.599792,421.889862 549.382874,432.340515 551.976318,446.166107 
	C552.456299,448.725067 552.598022,451.345734 553.013428,453.918945 
	C554.042786,460.295746 549.564087,463.247192 544.869995,463.396179 
	C528.122559,463.927826 511.347992,463.604095 494.621460,463.604095 
	C495.796448,477.169220 507.242889,486.669617 525.223999,483.955780 
	C530.622253,483.141083 535.990967,481.669250 541.143921,479.849121 
	C544.722656,478.585022 547.627258,479.338257 549.267761,482.056061 
	C550.863281,484.699249 551.233887,488.605072 547.900391,490.400330 
	C542.526855,493.294281 536.897644,497.009125 531.109253,497.557556 
	C520.289856,498.582642 509.027557,499.696259 498.767365,493.965515 
	C486.800629,487.281586 481.109955,476.968323 479.870056,463.423950 
	C478.908386,452.919037 480.505493,443.155396 485.227417,433.425568 
M524.256348,431.003784 
	C521.424316,430.360626 518.439575,428.793640 515.786255,429.231995 
	C503.395233,431.279083 495.891052,436.643677 494.531006,450.731995 
	C508.947296,450.731995 523.364075,450.731995 538.135681,450.731995 
	C537.793091,441.203735 532.920227,435.144684 524.256348,431.003784 
z"/>
<path fill="#FEFFFF" opacity="1.000000" stroke="none" 
	d="
M220.002228,462.833496 
	C218.405212,467.220459 222.107666,475.652832 226.941193,479.004913 
	C238.818939,487.242188 251.130005,485.452789 263.613281,480.768524 
	C265.230988,480.161438 267.372162,478.847809 268.479492,479.412720 
	C270.898956,480.647034 274.278137,482.700958 274.526978,484.752228 
	C274.791534,486.933136 272.438171,490.454590 270.261414,491.696381 
	C265.683685,494.307800 260.582825,497.070618 255.500717,497.511200 
	C244.291702,498.482941 232.782761,499.648895 222.232529,493.678619 
	C210.568802,487.078247 205.077347,476.665344 204.057480,463.742889 
	C203.111374,451.755249 204.549164,440.204498 211.967438,430.083832 
	C217.961136,421.906677 226.072372,417.700165 236.051636,417.023712 
	C245.361343,416.392609 254.291534,417.410339 262.271393,423.009338 
	C271.652496,429.591492 279.263336,446.958008 276.837646,457.701202 
	C276.466583,459.344513 274.237579,460.568268 272.095886,461.848938 
	C270.533203,461.481903 269.743103,461.053802 268.951752,461.051422 
	C253.637329,461.005493 238.322510,460.974792 223.008743,461.081482 
	C222.002548,461.088501 221.004211,462.223297 220.002228,462.833496 
M255.388168,451.000000 
	C257.841522,451.000000 260.294891,451.000000 262.773132,451.000000 
	C261.616180,434.222900 246.953674,427.498688 235.193375,430.015625 
	C225.356522,432.120911 217.995514,441.774445 219.639984,451.000000 
	C231.196411,451.000000 242.807785,451.000000 255.388168,451.000000 
z"/>
<path fill="#FEFFFF" opacity="1.000000" stroke="none" 
	d="
M365.000000,461.000061 
	C364.999969,471.161072 365.027527,480.822266 364.987183,490.483124 
	C364.969482,494.714783 361.818542,497.788025 357.598785,497.849731 
	C354.170410,497.899902 351.023682,494.517487 351.013184,490.591675 
	C350.978485,477.599335 351.231445,464.600464 350.875977,451.617767 
	C350.749603,447.002167 349.855652,442.162079 348.145081,437.891907 
	C345.460175,431.189484 336.560760,428.763672 327.301910,431.334351 
	C319.526123,433.493256 314.606140,439.547485 309.528015,445.216614 
	C308.739136,446.097351 309.022736,448.048950 309.019196,449.505859 
	C308.986664,462.997925 309.013306,476.490112 308.992889,489.982239 
	C308.985596,494.802185 306.033386,498.025665 301.831940,497.909149 
	C297.790527,497.797058 295.014709,494.756744 295.010071,490.263062 
	C294.987793,468.608978 294.871918,446.953125 295.178436,425.303375 
	C295.212921,422.864838 297.166412,419.195740 299.181763,418.340790 
	C302.130768,417.089783 306.518646,417.102081 308.256744,421.007568 
	C309.332855,423.425659 308.987946,426.476166 309.305786,429.477448 
	C312.829987,426.838562 316.185974,423.827026 319.990540,421.572418 
	C330.432281,415.384674 341.401733,414.541870 352.052032,420.679657 
	C361.182739,425.941742 364.838776,434.699707 364.987061,445.009369 
	C365.061279,450.171936 365.000000,455.336487 365.000000,461.000061 
z"/>
<path fill="#FEFFFF" opacity="1.000000" stroke="none" 
	d="
M720.585693,497.997498 
	C708.416626,498.308990 696.787170,498.181366 686.205627,492.038788 
	C681.435181,489.269562 680.333984,484.098724 684.491760,481.337982 
	C686.393616,480.075195 689.729309,480.372864 692.276428,480.795715 
	C699.303040,481.962219 706.208130,483.974182 713.261047,484.816803 
	C716.455872,485.198456 720.100647,484.096558 723.153625,482.773346 
	C726.548096,481.302124 728.809204,478.164215 728.520813,474.254791 
	C728.241516,470.469055 724.853638,469.071564 721.856140,468.102203 
	C714.008057,465.564331 705.947876,463.663239 698.156555,460.974335 
	C690.766846,458.424011 684.437012,453.889954 683.161377,445.680878 
	C681.038818,432.021423 688.092407,421.237976 701.412354,418.125610 
	C712.467957,415.542297 723.602478,416.455322 734.342468,420.222015 
	C737.643005,421.379578 740.819214,423.441986 739.917542,427.809235 
	C738.963135,432.432068 735.626648,433.712738 731.332947,432.979401 
	C727.333191,432.296356 723.319763,431.626312 719.381470,430.666809 
	C713.359375,429.199615 707.502319,429.833801 702.441772,433.103973 
	C700.026306,434.664886 697.922668,437.819611 697.220276,440.636932 
	C696.356567,444.101318 699.256348,446.115326 702.520325,447.144836 
	C710.689087,449.721344 718.783386,452.552063 727.013306,454.912048 
	C742.635986,459.391998 747.503174,474.817474 738.649963,488.424805 
	C734.798279,494.344757 727.888733,496.572235 720.585693,497.997498 
z"/>
<path fill="#FEFFFF" opacity="1.000000" stroke="none" 
	d="
M620.952026,425.891876 
	C627.926758,418.802673 634.845337,411.656372 641.940002,404.689331 
	C642.939026,403.708252 645.074646,402.884796 646.177002,403.308411 
	C647.151978,403.682983 647.811707,405.868347 647.920715,407.306580 
	C648.170715,410.604797 647.999817,413.934875 647.999817,418.000000 
	C653.350769,418.000000 658.590698,417.915070 663.826721,418.021271 
	C670.532349,418.157318 672.980103,422.665192 668.959473,428.884766 
	C663.019958,429.011597 657.870972,428.868134 652.738708,429.098022 
	C651.451904,429.155670 650.218872,430.412903 648.961121,431.118835 
	C648.640747,432.607819 648.051453,434.095154 648.042358,435.586029 
	C647.967468,447.909576 647.999817,460.233765 648.000061,472.557739 
	C648.000244,483.692688 652.775330,487.581604 663.566772,484.632446 
	C668.008179,483.418671 671.005981,484.287872 672.700012,488.443024 
	C674.026062,491.695404 671.577454,495.039246 666.944519,496.538879 
	C658.862732,499.154877 650.618408,499.038940 642.919617,495.784821 
	C636.745605,493.175171 634.061157,487.464050 634.011536,480.749695 
	C633.889893,464.272339 633.827515,447.794556 633.268005,430.700439 
	C630.832825,429.722626 628.782593,429.604919 626.932190,428.935272 
	C624.845032,428.179962 622.937622,426.927887 620.952026,425.891876 
z"/>
<path fill="#FEFFFF" opacity="1.000000" stroke="none" 
	d="
M185.000000,480.981232 
	C185.000000,483.807495 185.000687,486.137543 184.999847,488.467560 
	C184.997681,494.476532 182.645096,497.498383 177.594437,497.980865 
	C174.137604,498.311096 170.699799,494.419739 170.032928,489.341797 
	C169.903946,488.359558 170.000458,487.347107 170.000427,486.348602 
	C169.999634,455.725372 169.951767,425.101929 170.084930,394.479279 
	C170.096405,391.840729 170.527939,388.426758 172.173141,386.783173 
	C173.946716,385.011292 177.584290,383.847809 180.034958,384.327606 
	C183.136673,384.934937 185.108459,387.601440 185.086761,391.611450 
	C184.926361,421.235260 184.999969,450.860321 185.000000,480.981232 
z"/>
<path fill="#FEFFFF" opacity="1.000000" stroke="none" 
	d="
M571.000122,424.434998 
	C571.889709,418.984497 573.691833,417.676300 579.238831,418.000580 
	C583.827087,418.268799 584.606934,419.753754 585.202515,429.192963 
	C589.288513,426.103699 593.162842,422.414429 597.710205,419.984955 
	C601.137817,418.153748 605.384521,417.545685 609.345459,417.110168 
	C613.280029,416.677582 616.732361,420.128021 616.908508,423.794006 
	C617.080261,427.367950 613.739136,430.889099 609.606018,430.953522 
	C599.948914,431.104034 592.347900,435.106934 586.770508,442.858398 
	C585.729370,444.305389 585.093140,446.380493 585.075439,448.173676 
	C584.938538,462.005585 585.007568,475.839478 584.996033,489.672729 
	C584.991821,494.684723 581.988220,497.876678 577.410095,497.795105 
	C573.731140,497.729584 571.007324,494.406128 571.005005,489.888672 
	C570.993896,468.222107 571.000000,446.555542 571.000122,424.434998 
z"/>
<path fill="#FEFFFF" opacity="1.000000" stroke="none" 
	d="
M220.284088,462.955719 
	C221.004211,462.223297 222.002548,461.088501 223.008743,461.081482 
	C238.322510,460.974792 253.637329,461.005493 268.951752,461.051422 
	C269.743103,461.053802 270.533203,461.481903 271.714661,461.881165 
	C265.493622,462.468292 258.885559,463.149719 252.269165,463.243652 
	C241.704346,463.393677 231.133957,463.153259 220.284088,462.955719 
z"/>
<path fill="#FEFFFF" opacity="1.000000" stroke="none" 
	d="
M106.040283,450.350708 
	C114.547058,450.135162 123.201782,450.221863 131.947815,450.713623 
	C123.422157,450.963440 114.805191,450.808228 106.040283,450.350708 
z"/>
<path fill="#FEFFFF" opacity="1.000000" stroke="none" 
	d="
M649.072632,431.373840 
	C650.218872,430.412903 651.451904,429.155670 652.738708,429.098022 
	C657.870972,428.868134 663.019958,429.011597 668.638550,429.029572 
	C667.304749,432.547180 663.932678,431.370850 661.132568,431.539612 
	C657.162415,431.778931 653.168091,431.618469 649.072632,431.373840 
z"/>
<path fill="#FEFFFF" opacity="1.000000" stroke="none" 
	d="
M620.624512,426.071960 
	C622.937622,426.927887 624.845032,428.179962 626.932190,428.935272 
	C628.782593,429.604919 630.832825,429.722626 632.896118,430.458710 
	C629.678772,431.063995 626.320801,431.707306 623.054016,431.395142 
	C620.417114,431.143188 619.282410,429.014008 620.624512,426.071960 
z"/>
<path fill="#47704C" opacity="1.000000" stroke="none" 
	d="
M206.025452,158.000641 
	C219.788422,155.080444 233.524231,153.396255 246.326920,148.996719 
	C277.711578,138.211639 308.846619,126.633057 339.724762,114.466782 
	C357.985016,107.272072 375.474091,98.142776 393.480988,90.274902 
	C407.196838,84.281944 421.585022,80.289963 436.399872,78.024948 
	C445.905609,76.571640 455.430145,75.199005 464.981995,74.101326 
	C475.585175,72.882828 486.241089,72.128723 496.851746,70.968559 
	C507.577789,69.795792 518.264465,68.263000 528.991150,67.096703 
	C537.001343,66.225746 545.054382,65.757240 553.075989,64.981567 
	C562.372986,64.082565 571.650696,62.982479 580.948242,62.089584 
	C586.055725,61.599087 591.182800,61.273487 596.308289,61.018974 
	C604.431274,60.615627 612.591553,60.673023 620.680115,59.928272 
	C635.890320,58.527790 651.056519,56.655796 666.248840,55.053692 
	C676.521545,53.970387 686.791687,52.558327 697.094666,52.196957 
	C702.050659,52.023125 707.079956,53.938431 712.230530,54.937637 
	C710.242615,60.479118 707.207275,63.577099 702.854980,66.192558 
	C695.687927,70.499474 692.413025,78.129417 691.294800,85.868156 
	C689.776733,96.375183 687.085632,106.177368 680.443970,115.444000 
	C689.069763,114.252708 696.954285,112.959877 704.888977,112.171074 
	C707.945862,111.867180 711.111511,112.774696 714.236511,113.015587 
	C720.679321,113.512260 725.946777,111.160286 730.792297,106.894958 
	C735.404907,102.834656 740.242676,105.542603 746.426697,107.929451 
	C742.496033,110.315498 739.442627,111.929321 736.645996,113.906288 
	C720.571167,125.269592 704.341003,136.429932 688.583557,148.220520 
	C672.864746,159.982132 655.825684,169.336563 638.297119,177.964569 
	C611.192444,191.306168 583.595886,203.535278 554.879944,212.946091 
	C532.266907,220.356827 509.518341,227.482086 486.508514,233.506317 
	C472.391388,237.202332 457.719788,238.972641 443.202667,240.893478 
	C429.228271,242.742477 415.151306,243.943542 401.084412,244.930893 
	C386.752045,245.936874 372.376587,246.326874 358.020813,247.003738 
	C351.425049,247.314697 344.804108,248.205261 338.242798,247.875290 
	C328.103546,247.365387 317.906921,246.613647 307.913574,244.912949 
	C293.361084,242.436371 278.871704,239.416199 264.534332,235.898712 
	C251.332047,232.659683 238.363968,228.464874 225.296402,224.678299 
	C211.558411,220.697464 198.083710,216.342422 183.420288,215.716888 
	C164.527771,214.910919 147.219070,218.067093 131.666763,229.075226 
	C121.963226,235.943527 112.567329,243.276352 102.608238,249.746323 
	C89.208649,258.451385 74.715347,265.054138 59.427917,269.807892 
	C58.438534,270.115570 57.270256,269.847931 57.127647,269.847931 
	C61.681751,258.059235 66.904533,246.527313 70.532089,234.513702 
	C73.379021,225.085358 74.834984,215.121887 75.857239,205.286835 
	C77.134827,192.995346 78.188889,180.566803 77.827698,168.241730 
	C76.998962,139.963165 76.455978,111.542053 65.398354,83.998474 
	C76.056152,84.059464 84.899918,87.327843 93.370644,91.896873 
	C105.012917,98.176605 111.910591,109.131920 120.020645,118.924629 
	C130.820618,131.965347 141.051697,145.781677 156.086548,154.312164 
	C161.518127,157.393936 168.160233,159.163986 174.421661,159.776047 
	C184.787354,160.789307 195.278351,160.163452 206.025452,158.000641 
M599.154175,140.628830 
	C599.607178,140.686157 600.060242,140.743484 600.513245,140.800812 
	C600.252563,140.325043 599.991882,139.849274 599.282776,138.855301 
	C598.085693,137.312836 596.550903,135.928040 595.745361,134.202759 
	C589.722839,121.302971 588.482971,108.188187 595.037354,95.108116 
	C598.252197,88.692665 602.021729,82.555206 605.611877,76.164345 
	C605.079041,76.164345 604.636414,76.028275 604.475708,76.183693 
	C586.870667,93.210075 582.136536,106.561615 589.174927,128.855820 
	C590.676270,133.611160 592.736694,138.916473 599.154175,140.628830 
M604.212769,164.999786 
	C593.102600,171.229874 584.949707,180.856110 575.916809,189.490234 
	C573.346497,191.947083 570.391357,194.156693 567.271790,195.852615 
	C559.856506,199.883896 556.243958,198.603638 553.377075,190.677338 
	C550.554565,182.873749 545.441345,176.762833 539.623474,171.293289 
	C533.891357,165.904449 527.503784,161.212860 521.392883,156.206451 
	C536.649536,145.958221 558.686768,146.074860 575.653076,148.246429 
	C584.526794,149.382202 593.486084,149.849091 602.406738,150.618057 
	C602.494324,150.185669 602.581848,149.753281 602.669434,149.320892 
	C602.051941,148.892059 601.478760,148.181564 600.810364,148.076401 
	C589.713928,146.330856 578.653809,144.053986 567.484558,143.167389 
	C558.601990,142.462280 549.543213,143.038223 540.634583,143.842133 
	C530.108643,144.791992 521.134338,150.096680 511.982941,155.707092 
	C517.497253,159.918076 523.161072,163.579376 528.023499,168.102310 
	C536.663147,176.138809 546.568726,183.156204 550.149597,195.515457 
	C551.610718,200.558334 557.086121,205.150772 563.897522,202.776825 
	C568.674377,201.111938 573.566589,198.501205 577.185669,195.036682 
	C587.043396,185.599854 596.252686,175.485733 606.150818,165.265152 
	C606.304993,164.929001 606.459106,164.592834 606.613281,164.256683 
	C606.051147,164.476822 605.488953,164.696960 604.212769,164.999786 
M641.840698,158.999344 
	C652.033203,159.009689 662.320374,159.726410 671.888123,154.063324 
	C657.455139,154.063324 643.022156,154.063324 628.589172,154.063324 
	C628.488831,154.515808 628.388489,154.968307 628.288147,155.420792 
	C632.498352,156.612000 636.708557,157.803207 641.840698,158.999344 
M668.671204,72.995689 
	C663.911499,72.210434 660.563110,74.235184 659.978516,78.048912 
	C659.280701,82.601784 661.574402,85.966782 665.479431,86.448631 
	C668.040527,86.764648 671.649902,84.648911 673.570251,82.521439 
	C675.846375,79.999855 673.444458,75.363533 668.671204,72.995689 
z"/>
<path fill="#47704C" opacity="1.000000" stroke="none" 
	d="
M249.951462,237.041046 
	C268.059326,241.565643 285.753418,246.050888 302.841125,250.382431 
	C299.079468,257.810883 294.864716,265.633789 291.125153,273.677612 
	C288.142792,280.092712 284.084503,285.500916 278.100677,289.185303 
	C276.591248,290.114716 273.660370,290.386078 272.223969,289.536835 
	C249.153381,275.897430 228.985489,258.655426 210.694962,239.155060 
	C209.143494,237.500977 207.900772,235.557281 206.618515,233.883743 
	C221.242035,229.597229 235.551666,231.153061 249.951462,237.041046 
z"/>
<path fill="#47704C" opacity="1.000000" stroke="none" 
	d="
M373.984558,53.996765 
	C384.872589,60.184685 395.299866,66.465004 405.947693,72.345963 
	C409.426544,74.267380 413.479553,75.149246 417.836945,76.709572 
	C414.776764,77.647217 411.920929,78.253990 409.284088,79.375580 
	C396.321075,84.889488 383.401611,90.506737 370.497131,96.156853 
	C364.261810,98.886925 358.328278,102.795990 351.826172,104.284645 
	C345.735962,105.678986 339.075653,104.583115 332.304626,104.583115 
	C342.873718,92.230606 345.748779,76.959747 349.053833,61.827602 
	C349.667816,59.016396 350.663910,56.226555 351.906494,53.629150 
	C353.804535,49.661636 356.556732,46.917801 361.517578,48.982441 
	C365.538635,50.655979 369.578247,52.285046 373.984558,53.996765 
z"/>
<path fill="#47704C" opacity="1.000000" stroke="none" 
	d="
M418.315063,287.253540 
	C414.438019,293.454681 410.799377,299.350006 406.542786,306.246490 
	C404.647552,300.714233 403.825317,296.303070 401.723480,292.622681 
	C398.029816,286.154816 393.557526,280.131073 389.396881,273.931091 
	C389.030487,273.385101 388.479431,272.957123 388.145660,272.396118 
	C381.505280,261.233276 385.536133,251.917160 398.425629,250.162781 
	C407.678314,248.903427 417.108093,248.945312 426.887482,248.382004 
	C423.426849,261.085846 424.722992,274.779236 418.315063,287.253540 
z"/>
<path fill="#47704C" opacity="1.000000" stroke="none" 
	d="
M615.000000,204.127686 
	C615.000000,218.978897 612.308838,228.516449 605.676575,237.692551 
	C597.095459,228.135208 588.504517,218.566940 580.150208,209.262222 
	C590.747253,204.827148 602.039062,200.101349 613.994080,195.097946 
	C614.351624,198.141785 614.675781,200.901520 615.000000,204.127686 
z"/>
<path fill="#47704C" opacity="1.000000" stroke="none" 
	d="
M195.680756,137.714096 
	C203.173630,136.322464 209.687668,137.824692 215.560745,142.186844 
	C218.856293,144.634567 222.265671,146.929016 225.895569,149.483826 
	C220.511688,150.104080 215.460403,153.156189 209.614014,150.059448 
	C206.891083,148.617126 203.388031,148.658218 200.245697,147.993362 
	C198.198898,147.560272 195.888275,147.517960 194.197769,146.481766 
	C192.247284,145.286240 190.848907,143.190002 189.210785,141.484894 
	C191.262497,140.298859 193.314209,139.112823 195.680756,137.714096 
z"/>
<path fill="#47704C" opacity="1.000000" stroke="none" 
	d="
M423.241760,431.000122 
	C429.550598,430.541473 435.008850,431.480652 440.165222,434.601501 
	C449.047150,439.977295 452.408661,454.235352 450.734222,462.374298 
	C448.811951,471.717865 445.438354,479.967438 434.836060,483.175385 
	C422.834412,486.806702 410.707977,481.995056 403.274384,473.673187 
	C402.338959,472.626007 402.080933,470.693878 402.054596,469.162384 
	C401.931610,462.011780 402.256348,454.845093 401.900909,447.710052 
	C401.697693,443.630188 402.729218,440.275513 406.180145,438.466431 
	C411.544983,435.654022 417.232697,433.457611 423.241760,431.000122 
z"/>
<path fill="#47704C" opacity="1.000000" stroke="none" 
	d="
M524.657837,431.023010 
	C532.920227,435.144684 537.793091,441.203735 538.135681,450.731995 
	C523.364075,450.731995 508.947296,450.731995 494.531006,450.731995 
	C495.891052,436.643677 503.395233,431.279083 515.786255,429.231995 
	C518.439575,428.793640 521.424316,430.360626 524.657837,431.023010 
z"/>
<path fill="#47704C" opacity="1.000000" stroke="none" 
	d="
M254.903656,451.000000 
	C242.807785,451.000000 231.196411,451.000000 219.639984,451.000000 
	C217.995514,441.774445 225.356522,432.120911 235.193375,430.015625 
	C246.953674,427.498688 261.616180,434.222900 262.773132,451.000000 
	C260.294891,451.000000 257.841522,451.000000 254.903656,451.000000 
z"/>
<path fill="#FEFFFF" opacity="1.000000" stroke="none" 
	d="
M605.718994,165.640015 
	C596.252686,175.485733 587.043396,185.599854 577.185669,195.036682 
	C573.566589,198.501205 568.674377,201.111938 563.897522,202.776825 
	C557.086121,205.150772 551.610718,200.558334 550.149597,195.515457 
	C546.568726,183.156204 536.663147,176.138809 528.023499,168.102310 
	C523.161072,163.579376 517.497253,159.918076 511.982941,155.707092 
	C521.134338,150.096680 530.108643,144.791992 540.634583,143.842133 
	C549.543213,143.038223 558.601990,142.462280 567.484558,143.167389 
	C578.653809,144.053986 589.713928,146.330856 600.810364,148.076401 
	C601.478760,148.181564 602.051941,148.892059 602.669434,149.320892 
	C602.581848,149.753281 602.494324,150.185669 602.406738,150.618057 
	C593.486084,149.849091 584.526794,149.382202 575.653076,148.246429 
	C558.686768,146.074860 536.649536,145.958221 521.392883,156.206451 
	C527.503784,161.212860 533.891357,165.904449 539.623474,171.293289 
	C545.441345,176.762833 550.554565,182.873749 553.377075,190.677338 
	C556.243958,198.603638 559.856506,199.883896 567.271790,195.852615 
	C570.391357,194.156693 573.346497,191.947083 575.916809,189.490234 
	C584.949707,180.856110 593.102600,171.229874 604.757263,165.150757 
	C605.440857,165.414474 605.579895,165.527237 605.718994,165.640015 
z"/>
<path fill="#FEFFFF" opacity="1.000000" stroke="none" 
	d="
M598.928345,140.083923 
	C592.736694,138.916473 590.676270,133.611160 589.174927,128.855820 
	C582.136536,106.561615 586.870667,93.210075 604.475708,76.183693 
	C604.636414,76.028275 605.079041,76.164345 605.611877,76.164345 
	C602.021729,82.555206 598.252197,88.692665 595.037354,95.108116 
	C588.482971,108.188187 589.722839,121.302971 595.745361,134.202759 
	C596.550903,135.928040 598.085693,137.312836 599.295532,139.279907 
	C599.181702,139.830994 599.054993,139.957458 598.928345,140.083923 
z"/>
<path fill="#FEFFFF" opacity="1.000000" stroke="none" 
	d="
M641.379761,158.996887 
	C636.708557,157.803207 632.498352,156.612000 628.288147,155.420792 
	C628.388489,154.968307 628.488831,154.515808 628.589172,154.063324 
	C643.022156,154.063324 657.455139,154.063324 671.888123,154.063324 
	C662.320374,159.726410 652.033203,159.009689 641.379761,158.996887 
z"/>
<path fill="#FEFFFF" opacity="1.000000" stroke="none" 
	d="
M669.057495,73.001831 
	C673.444458,75.363533 675.846375,79.999855 673.570251,82.521439 
	C671.649902,84.648911 668.040527,86.764648 665.479431,86.448631 
	C661.574402,85.966782 659.280701,82.601784 659.978516,78.048912 
	C660.563110,74.235184 663.911499,72.210434 669.057495,73.001831 
z"/>
<path fill="#FEFFFF" opacity="1.000000" stroke="none" 
	d="
M605.114258,165.109406 
	C605.488953,164.696960 606.051147,164.476822 606.613281,164.256683 
	C606.459106,164.592834 606.304993,164.929001 605.934937,165.452576 
	C605.579895,165.527237 605.440857,165.414474 605.114258,165.109406 
z"/>
<path fill="#FEFFFF" opacity="1.000000" stroke="none" 
	d="
M599.519775,139.539017 
	C599.991882,139.849274 600.252563,140.325043 600.513245,140.800812 
	C600.060242,140.743484 599.607178,140.686157 599.041260,140.356384 
	C599.054993,139.957458 599.181702,139.830994 599.519775,139.539017 
z"/>
</svg>