<svg version="1.1" id="Layer_1" xmlns="http://www.w3.org/2000/svg" xmlns:xlink="http://www.w3.org/1999/xlink" x="0px" y="0px"
	 width="100%" viewBox="0 0 1782 502" enable-background="new 0 0 1782 502" xml:space="preserve">
<path fill="#3ee7cd" opacity="1.000000" stroke="none"
	d="
M1191.000000,503.000000
	C794.000000,503.000000 397.500000,503.000000 1.000000,503.000000
	C1.000000,335.666656 1.000000,168.333328 1.000000,1.000000
	C595.000000,1.000000 1189.000000,1.000000 1783.000000,1.000000
	C1783.000000,168.333328 1783.000000,335.666656 1783.000000,503.000000
	C1585.833374,503.000000 1388.666626,503.000000 1191.000000,503.000000
M551.500061,72.820213
	C408.089478,72.820213 264.678864,72.820213 121.281296,72.820213
	C121.281296,191.315720 121.281296,309.065094 121.281296,426.806580
	C638.641113,426.806580 1155.685913,426.806580 1672.716553,426.806580
	C1672.716553,308.683655 1672.716553,190.934174 1672.716553,72.820213
	C1299.101929,72.820213 925.801025,72.820213 551.500061,72.820213
z"/>
<path fill="#F8FEFF" opacity="1.000000" stroke="none"
	d="
M552.000122,72.820213
	C925.801025,72.820213 1299.101929,72.820213 1672.716553,72.820213
	C1672.716553,190.934174 1672.716553,308.683655 1672.716553,426.806580
	C1155.685913,426.806580 638.641113,426.806580 121.281296,426.806580
	C121.281296,309.065094 121.281296,191.315720 121.281296,72.820213
	C264.678864,72.820213 408.089478,72.820213 552.000122,72.820213
M889.483459,412.153107
	C889.547424,411.158386 889.667358,410.163635 889.667480,409.168915
	C889.675171,303.363464 889.674988,197.557983 889.662170,91.752518
	C889.661987,90.287125 889.496460,88.821739 889.374512,86.800140
	C886.997742,86.800140 884.881470,86.800140 882.765259,86.800140
	C747.300964,86.800156 611.836609,86.800056 476.372314,86.800201
	C364.568420,86.800323 252.764557,86.794556 140.960709,86.852242
	C139.030304,86.853233 137.100296,87.621422 135.061127,88.955757
	C135.055420,195.482071 135.049149,302.008392 135.051468,408.534698
	C135.051498,409.695496 135.164078,410.856323 135.474625,412.826385
	C137.296112,412.920563 139.117599,413.097137 140.939087,413.097229
	C388.461884,413.109528 635.984680,413.109741 883.507446,413.094055
	C885.322449,413.093933 887.137390,412.866852 889.483459,412.153107
M903.757812,88.928749
	C903.739868,195.624268 903.721252,302.319763 903.715576,409.015289
	C903.715515,410.004639 903.888550,410.993958 904.296204,412.797302
	C905.615601,412.901215 906.935059,413.096069 908.254456,413.096130
	C1156.973877,413.109314 1405.693237,413.110535 1654.412720,413.063293
	C1655.867188,413.063019 1657.321655,412.377258 1658.930054,411.087219
	C1658.938843,304.380371 1658.947876,197.673508 1658.948853,90.966652
	C1658.948853,89.972069 1658.837524,88.977486 1658.532349,87.175835
	C1657.210449,87.081238 1655.888550,86.903824 1654.566650,86.903763
	C1405.838135,86.891434 1157.109619,86.889755 908.381042,86.938126
	C906.914612,86.938408 905.448364,87.644287 903.757812,88.928749
z"/>
<path fill="#3ee7cd" opacity="1.000000" stroke="none"
	d="
M135.224121,412.017120
	C135.164078,410.856323 135.051498,409.695496 135.051468,408.534698
	C135.049149,302.008392 135.055420,195.482071 135.572937,88.470657
	C136.750931,87.969788 137.417099,87.940193 138.083282,87.940178
	C386.343903,87.935219 634.604492,87.951057 882.865051,87.808685
	C888.419373,87.805496 888.956238,90.062279 888.952087,94.616257
	C888.857422,198.585709 888.881592,302.555267 888.873047,406.524811
	C888.872925,408.354736 888.743591,410.184631 888.237549,412.008636
	C636.941711,412.007538 386.082916,412.012329 135.224121,412.017120
M252.054626,196.493149
	C242.032074,196.322159 232.009857,196.113846 221.986572,196.028595
	C220.769196,196.018234 219.546188,196.670547 217.768631,197.481339
	C214.725815,199.096741 212.927933,201.875992 214.538177,204.837204
	C215.674515,206.926910 218.508224,208.446030 220.910553,209.382339
	C222.798172,210.118027 225.185013,209.589600 227.350143,209.593063
	C233.273819,209.602524 239.197525,209.596329 245.421860,209.596329
	C245.421860,218.525665 245.491013,226.670517 245.336884,234.811127
	C245.316956,235.863373 244.389404,237.424332 243.465195,237.855362
	C227.341461,245.375122 210.953476,246.937607 195.253433,237.380997
	C178.595428,227.241241 172.472916,203.743256 180.476944,184.104767
	C187.490234,166.897110 206.499313,157.345932 226.785233,161.589920
	C233.674210,163.031158 240.255814,166.104279 246.844788,168.761673
	C251.524780,170.649139 255.261261,170.206009 256.752045,166.582901
	C258.402130,162.572571 257.095245,159.478363 253.112000,157.536407
	C251.171188,156.590195 249.375122,155.346466 247.432190,154.405396
	C230.967545,146.430969 213.924881,144.632690 196.649521,151.013596
	C175.082352,158.979752 163.448349,178.282089 163.239120,202.358047
	C163.030457,226.372360 176.057465,246.307449 196.803085,253.557510
	C214.718857,259.818604 232.182434,256.939758 249.255096,249.608490
	C255.225281,247.044785 257.946289,242.871185 257.863007,236.448685
	C257.735504,226.620026 257.782837,216.788132 257.853912,206.958328
	C257.885162,202.639038 256.628052,199.129517 252.054626,196.493149
M513.538330,250.904739
	C513.752380,249.373459 513.966431,247.842163 514.239441,245.888885
	C515.611755,246.980621 516.518982,247.670547 517.391907,248.401581
	C529.663513,258.678772 546.182678,259.691193 559.527039,250.977264
	C575.812988,240.342438 581.728638,217.367920 573.160217,198.029526
	C565.279053,180.242065 546.270874,171.689713 528.056152,178.273163
	C523.102844,180.063477 518.760193,183.543518 513.825378,186.430542
	C513.825378,174.782654 513.867004,163.314041 513.807434,151.845932
	C513.778870,146.346909 511.203613,143.240845 506.937347,143.247238
	C502.674408,143.253632 500.032471,146.385834 500.025970,151.842697
	C499.987915,183.823135 500.024353,215.803650 499.988342,247.784088
	C499.984222,251.466553 501.080811,254.556992 504.737885,255.701019
	C508.572418,256.900604 511.564240,255.348923 513.538330,250.904739
M368.619659,242.310318
	C363.354584,242.809692 358.051788,243.973801 352.831787,243.677963
	C339.637390,242.930115 330.716003,233.774902 330.456482,221.193680
	C332.278198,221.193680 334.093781,221.193726 335.909363,221.193680
	C350.734253,221.193314 365.559265,221.223724 380.384003,221.176529
	C385.902649,221.158966 388.835632,218.930222 388.675934,214.134720
	C388.192963,199.634766 383.248840,187.108826 369.692505,180.220657
	C356.228180,173.379242 342.513702,173.856171 330.180725,183.212708
	C314.373627,195.204941 311.205902,225.273956 322.770538,241.975494
	C335.422241,260.246918 366.902710,260.452759 383.038086,249.498901
	C385.588898,247.767197 386.940033,245.209259 385.415497,242.145920
	C383.864929,239.030212 381.078674,238.089706 377.827667,239.059357
	C374.972961,239.910797 372.209839,241.069336 368.619659,242.310318
M652.400146,221.194763
	C654.066284,221.185791 655.732849,221.199631 657.398376,221.163437
	C661.867432,221.066345 664.314819,218.619995 664.254700,214.301514
	C664.045593,199.273361 658.794006,186.693558 644.647339,179.878342
	C630.793823,173.204315 616.966248,174.137772 604.844238,184.064896
	C594.551514,192.494003 591.543274,204.408798 591.691772,217.209579
	C591.827332,228.892578 594.307251,240.051941 603.939026,247.631058
	C619.592102,259.948242 636.837097,259.332245 654.329163,251.924530
	C660.907166,249.138824 662.860413,245.910553 661.214417,242.210739
	C659.500000,238.357010 656.253296,237.999176 649.500916,240.649933
	C640.078247,244.348923 630.451904,245.372910 620.722473,241.978012
	C611.794495,238.862747 605.691467,229.930450 606.523682,221.195023
	C621.467957,221.195023 636.447815,221.195023 652.400146,221.194763
M466.514893,181.937561
	C449.442078,170.298248 434.937164,176.496964 421.211151,189.245972
	C421.104614,187.815872 421.036865,187.172424 421.011719,186.527298
	C420.760620,180.081451 418.515259,176.992493 414.022369,176.925156
	C409.299316,176.854370 407.001312,180.071304 406.996552,186.832077
	C406.986206,201.485199 406.990753,216.138336 406.994720,230.791458
	C406.996399,236.952209 406.868469,243.117706 407.072205,249.272034
	C407.205963,253.311462 409.544067,255.794769 413.663910,255.974350
	C417.830505,256.155945 420.091797,253.699875 420.813110,249.791962
	C421.081879,248.335785 420.997955,246.806381 420.999420,245.310287
	C421.011749,232.655319 420.979034,220.000214 421.041473,207.345551
	C421.049377,205.748520 420.948944,203.475998 421.888245,202.670914
	C426.996307,198.292648 431.829742,192.771149 437.842499,190.434326
	C452.488403,184.742264 462.428467,192.214600 462.814209,207.918228
	C462.916412,212.078552 462.830017,216.243484 462.831604,220.406311
	C462.835266,229.897522 462.803345,239.388947 462.861115,248.879822
	C462.885681,252.915771 464.812622,255.624725 468.998505,255.962219
	C473.102661,256.293121 475.577209,254.094589 476.428955,250.127289
	C476.705414,248.839584 476.833099,247.495850 476.836121,246.177292
	C476.865204,233.522400 476.948578,220.866425 476.821686,208.212723
	C476.723969,198.465714 474.652832,189.365448 466.514893,181.937561
M835.078430,227.181961
	C838.146545,228.406204 840.977966,229.983215 840.758667,233.841843
	C840.532410,237.822723 838.524841,240.864502 834.658997,242.153183
	C832.010254,243.036148 829.088867,244.169388 826.459290,243.838821
	C818.953857,242.895355 811.471741,241.529617 804.108826,239.787445
	C800.317200,238.890289 797.119019,238.469467 795.091248,242.354416
	C793.375610,245.641510 795.076965,249.057861 799.281067,251.096146
	C810.406494,256.490021 822.080811,258.076080 834.264587,255.972214
	C845.115173,254.098557 853.185181,246.118652 853.998840,236.429520
	C854.943481,225.180237 849.796875,217.847351 837.837585,213.901093
	C829.802551,211.249802 821.511047,209.318222 813.612183,206.330063
	C806.931641,203.802826 806.262634,195.996628 812.383850,192.305481
	C815.645203,190.338882 819.861389,188.955460 823.614502,189.025665
	C830.193237,189.148712 836.758057,190.521255 843.307251,191.512238
	C846.947144,192.063004 849.749756,190.883057 850.846802,187.447723
	C851.940552,184.022736 850.632446,181.203949 847.008179,179.912445
	C836.135681,176.038025 825.035095,174.583435 813.674622,177.296204
	C802.518494,179.960190 795.496826,188.299622 795.037292,199.080307
	C794.604248,209.236176 800.296997,216.459564 811.935303,220.181885
	C819.364624,222.558029 826.875549,224.679230 835.078430,227.181961
M764.837708,256.806580
	C770.043091,255.948349 775.324768,255.395172 780.425415,254.118484
	C783.530090,253.341415 784.812500,250.556778 783.890869,247.354950
	C782.953003,244.096649 780.361267,243.134766 777.245972,243.473541
	C775.265381,243.688950 773.324219,244.257812 771.344666,244.494400
	C763.145447,245.474396 759.859192,242.582672 759.836426,234.405121
	C759.814575,226.572662 759.831604,218.740112 759.831543,210.907593
	C759.831543,203.958069 759.831543,197.008530 759.831543,189.585739
	C765.371643,189.585739 770.333496,189.662537 775.291687,189.561722
	C779.349731,189.479233 782.858582,188.043350 782.805908,183.392517
	C782.752808,178.694855 779.246826,177.511566 775.128662,177.548996
	C770.192017,177.593857 765.254639,177.559601 759.792480,177.559601
	C759.792480,173.262100 760.021362,169.612732 759.729187,166.005554
	C759.426636,162.270050 757.018066,161.160995 754.387207,163.622574
	C747.340637,170.215607 740.485413,177.015884 733.668030,183.847504
	C732.855774,184.661469 732.075134,186.544662 732.475891,187.284500
	C733.055176,188.354126 734.677063,189.336227 735.943054,189.462097
	C739.029541,189.768997 742.167114,189.562119 745.808228,189.562119
	C745.808228,191.995300 745.808289,193.787949 745.808289,195.580582
	C745.808044,208.579224 745.750183,221.578186 745.822876,234.576416
	C745.904480,249.157562 749.760986,253.812851 764.837708,256.806580
M296.573700,242.351593
	C296.573517,212.684967 296.590668,183.018311 296.559998,153.351715
	C296.552979,146.548538 294.190399,143.249069 289.554657,143.225143
	C284.879639,143.201019 282.594360,146.448822 282.504456,153.246490
	C282.500061,153.579773 282.503326,153.913162 282.503326,154.246490
	C282.503448,184.579788 282.497528,214.913101 282.518890,245.246384
	C282.520172,247.071365 282.086639,249.378723 283.000732,250.614288
	C284.593079,252.766632 287.032928,255.582886 289.202484,255.657684
	C291.415222,255.733978 294.485901,253.293915 295.780975,251.121109
	C296.996613,249.081635 296.382599,245.951614 296.573700,242.351593
M702.442749,183.952042
	C700.801331,185.517197 699.159851,187.082336 697.550659,188.616745
	C697.322571,188.486877 697.097229,188.427216 697.087158,188.342148
	C696.990234,187.520737 696.915405,186.695984 696.860718,185.870438
	C696.471619,179.998520 693.975037,176.898376 689.615967,176.884796
	C685.181580,176.870956 682.862305,179.899597 682.840942,185.983124
	C682.798340,198.132401 682.823792,210.281921 682.829163,222.431351
	C682.833069,231.252014 682.826660,240.072784 682.871643,248.893280
	C682.892517,252.980515 684.923462,255.610428 689.039551,255.958710
	C693.435730,256.330719 695.802185,253.714371 696.634155,249.643433
	C696.929749,248.197021 696.847778,246.662842 696.849426,245.168610
	C696.863770,232.187042 696.759644,219.203979 696.957092,206.225388
	C696.989136,204.118515 697.857117,201.661911 699.151672,200.000458
	C704.324829,193.361221 711.196716,189.892090 719.743347,189.514099
	C725.646362,189.253036 728.245544,186.672287 727.952332,182.312622
	C727.655457,177.899261 723.963501,174.825882 718.486816,176.288361
	C713.064270,177.736404 708.127563,181.003891 702.442749,183.952042
M602.008850,346.415527
	C612.729675,361.438385 633.824524,360.046082 641.310242,343.702026
	C645.972656,333.522217 646.035645,323.063293 641.609497,312.793579
	C637.717407,303.763062 630.309204,299.312439 620.722961,299.343933
	C611.331116,299.374756 604.055847,303.794128 600.297913,312.657043
	C595.562866,323.824310 596.016663,334.962311 602.008850,346.415527
M489.177612,339.548401
	C489.177612,336.442017 489.177612,333.335602 489.177612,330.135132
	C498.075378,330.135132 506.320007,330.135132 515.103394,330.135132
	C515.103394,338.783844 515.103394,347.184113 515.103394,355.514099
	C517.712158,355.514099 519.773315,355.514099 521.833008,355.514099
	C521.833008,336.931763 521.833008,318.707825 521.833008,300.471252
	C519.407349,300.471252 517.353394,300.471252 514.880371,300.471252
	C514.880371,308.243774 514.880371,315.684143 514.880371,323.218933
	C506.212036,323.218933 497.973633,323.218933 489.035278,323.218933
	C489.035278,315.359100 489.035278,307.813446 489.035278,300.484253
	C486.408783,300.484253 484.492157,300.484253 482.515015,300.484253
	C482.515015,319.063232 482.515015,337.286987 482.515015,355.623535
	C484.790436,355.623535 486.713043,355.623535 489.177612,355.623535
	C489.177612,350.438629 489.177612,345.485046 489.177612,339.548401
M433.590515,347.916931
	C433.958405,348.696136 434.134125,349.687622 434.723999,350.221649
	C440.491241,355.443329 447.453369,357.331757 455.015167,356.675629
	C463.619598,355.929016 469.780029,350.787323 470.956879,343.957520
	C472.339996,335.930939 468.737946,330.187195 459.854492,326.180725
	C455.471100,324.203796 451.035278,322.321594 446.766663,320.118469
	C443.419464,318.390808 441.668945,315.062897 443.303162,311.783661
	C444.514465,309.352936 447.344360,306.923706 449.944489,306.154724
	C455.676392,304.459656 460.979706,306.601593 465.729370,310.649323
	C467.025818,309.016022 468.099152,307.663788 469.238953,306.227814
	C464.116882,300.923370 458.169708,298.852875 451.383331,299.395020
	C442.873413,300.074768 436.974640,304.897369 435.859253,311.699280
	C434.661743,319.001526 438.172791,324.371521 446.562836,328.172913
	C450.645081,330.022583 454.704773,331.923523 458.750214,333.852539
	C462.438751,335.611328 464.424103,338.545929 463.868317,342.654419
	C463.288269,346.942230 460.509888,349.314026 456.315887,350.166046
	C448.837891,351.685242 442.727173,348.846802 437.148407,343.896393
	C435.985901,345.186310 435.002380,346.277618 433.590515,347.916931
M581.328674,306.546356
	C583.285706,307.736206 585.242798,308.926025 587.465515,310.277374
	C588.630615,308.951111 589.775574,307.647797 590.889221,306.380157
	C580.673218,295.129120 562.036072,298.052887 555.066040,311.828827
	C550.237549,321.371918 549.936401,331.401581 553.592773,341.353821
	C556.678040,349.751831 562.633911,355.125183 571.789246,356.462036
	C579.989746,357.659515 586.787231,355.256775 592.354248,348.786469
	C591.579834,347.875671 590.999512,347.088989 590.309753,346.414185
	C589.739685,345.856445 589.040222,345.430939 588.268250,344.848938
	C587.522766,345.468414 586.894958,345.990204 586.267029,346.511932
	C577.471252,353.819550 564.992615,351.327515 561.352051,340.553070
	C559.262939,334.370422 558.720032,327.052094 559.698975,320.580536
	C561.446106,309.031158 568.864502,304.587402 581.328674,306.546356
M379.847717,349.334595
	C379.847717,343.718597 379.847717,338.102570 379.847717,331.962219
	C385.245911,331.962219 390.192749,331.969757 395.139587,331.960297
	C401.345367,331.948456 401.520294,331.728241 400.405640,324.935608
	C393.751709,324.935608 387.006897,324.935608 380.116882,324.935608
	C380.116882,318.545563 380.116882,312.638947 380.116882,306.132202
	C388.427887,306.132202 396.483734,306.132202 404.901398,306.132202
	C404.778992,303.801270 404.689392,302.094696 404.600403,300.400665
	C393.792633,300.400665 383.544159,300.400665 373.235596,300.400665
	C373.235596,319.031708 373.235596,337.376495 373.235596,355.927917
	C375.604614,355.824066 377.525604,355.739838 379.847290,355.638062
	C379.847290,353.557159 379.847290,351.920135 379.847717,349.334595
M421.079865,300.406189
	C419.155304,300.406189 417.230743,300.406189 415.193695,300.406189
	C415.193695,318.988220 415.193695,337.307007 415.193695,355.583679
	C417.507599,355.583679 419.422363,355.583679 421.643219,355.583679
	C421.643219,337.232788 421.643219,319.175476 421.079865,300.406189
z"/>
<path fill="#3ee7cd" opacity="1.000000" stroke="none"
	d="
M903.980835,411.983307
	C903.888550,410.993958 903.715515,410.004639 903.715576,409.015289
	C903.721252,302.319763 903.739868,195.624268 904.336304,88.479614
	C906.914246,88.020111 908.913818,88.000732 910.913330,88.000679
	C1160.201538,87.993828 1409.489868,87.988403 1658.778076,87.982910
	C1658.837524,88.977486 1658.948853,89.972069 1658.948853,90.966652
	C1658.947876,197.673508 1658.938843,304.380371 1658.404541,411.543762
	C1406.579590,411.994629 1155.280151,411.988983 903.980835,411.983307
M1318.474243,317.825073
	C1360.100220,312.654022 1400.411621,302.195740 1439.806885,287.927124
	C1456.409546,281.913818 1456.581299,282.025513 1468.477539,295.473297
	C1474.415161,302.185242 1479.912109,309.286957 1486.007080,316.696960
	C1487.945679,314.267212 1490.114014,311.988495 1491.779663,309.387909
	C1499.925049,296.670349 1500.898315,282.475983 1499.573730,268.004639
	C1499.247681,264.442902 1500.300415,263.099854 1503.314941,261.722412
	C1526.173950,251.277130 1548.610718,240.072296 1569.132690,225.347946
	C1587.903809,211.879944 1606.883057,198.702255 1625.757568,185.378265
	C1626.839966,184.614182 1627.926025,183.793106 1628.804321,182.813766
	C1631.262207,180.072998 1631.143677,177.320221 1628.143677,175.136581
	C1622.320435,170.897873 1613.612305,170.015808 1607.779053,175.006241
	C1604.937744,177.436951 1600.750244,179.229645 1597.034668,179.514145
	C1588.491089,180.168259 1579.863403,179.721436 1571.668701,179.721436
	C1573.525635,171.549316 1575.186646,163.113419 1577.409058,154.828125
	C1579.069702,148.637299 1582.081421,143.381729 1588.129150,139.857391
	C1591.354370,137.977814 1593.903564,134.365036 1595.852173,131.008713
	C1598.461426,126.514320 1596.873657,122.309761 1591.816162,121.468163
	C1583.864990,120.145058 1575.660034,119.118950 1567.660767,119.599541
	C1555.561279,120.326485 1543.580322,122.850029 1531.487427,123.901459
	C1511.593262,125.631165 1491.602661,126.317139 1471.736572,128.289108
	C1422.376221,133.188843 1373.069702,138.631042 1323.723389,143.675949
	C1316.908813,144.372635 1310.326782,146.674561 1303.058594,144.411819
	C1292.482422,141.119263 1282.541260,136.905991 1273.127441,131.060226
	C1264.820435,125.901634 1256.338013,120.831482 1247.408936,116.918068
	C1236.531250,112.150665 1229.924561,115.876701 1226.802612,127.282867
	C1225.354980,132.571732 1224.217041,137.945587 1222.950806,143.283783
	C1219.113525,159.460541 1213.410767,174.304703 1196.156250,180.942947
	C1195.969360,181.014877 1195.917114,181.436996 1195.721313,181.876831
	C1203.188721,181.490326 1210.579956,181.107773 1217.971069,180.725220
	C1218.068237,181.279663 1218.165405,181.834106 1218.262451,182.388550
	C1189.932617,192.903229 1161.629395,203.491013 1133.254761,213.883255
	C1125.793457,216.615952 1118.118774,219.628082 1110.091064,215.978195
	C1105.909424,214.076935 1101.762451,211.935760 1097.985718,209.341095
	C1089.882324,203.773956 1081.307373,201.651688 1072.109741,205.642639
	C1069.588379,206.736664 1066.527588,209.627258 1066.243652,211.996490
	C1065.949829,214.447571 1068.086670,218.255234 1070.310669,219.705917
	C1074.140015,222.203812 1078.861206,223.334335 1083.999390,225.348953
	C1077.495850,225.911469 1071.474365,226.459412 1065.447998,226.947983
	C1052.229492,228.019623 1040.318359,224.949280 1030.412109,215.709717
	C1027.253052,212.763229 1023.912231,209.952072 1021.121765,206.680573
	C1011.080017,194.908188 1001.529114,182.706329 991.247559,171.151962
	C977.937866,156.194763 960.474670,150.576157 940.447327,149.839767
	C941.073303,152.118912 941.544556,153.696854 941.939148,155.293762
	C944.967834,167.551773 949.456055,179.669174 950.673035,192.106003
	C952.775635,213.593948 953.504211,235.278473 953.584412,256.885071
	C953.667786,279.331787 949.928711,301.383850 940.734253,322.059265
	C936.744263,331.031555 931.339661,339.374786 926.460449,348.215881
	C931.193542,347.228973 936.289307,346.463104 941.215576,345.089417
	C966.640381,337.999725 988.981323,324.836304 1009.340271,308.522125
	C1023.646118,297.058472 1039.273682,291.107483 1057.488525,290.992249
	C1071.255737,290.905151 1084.380859,293.599487 1097.134766,299.202698
	C1090.713379,299.202698 1084.291992,299.202698 1077.179077,299.202698
	C1078.669067,301.301208 1079.581787,302.667511 1080.574463,303.972992
	C1100.440796,330.096466 1126.046509,349.568695 1153.600586,366.735565
	C1154.702026,367.421814 1157.057373,367.173981 1158.267456,366.438446
	C1168.634644,360.135681 1175.115601,350.736053 1179.651733,339.640045
	C1181.641113,334.773621 1184.596802,330.287140 1187.273926,325.722046
	C1189.134033,322.550140 1191.924805,321.767395 1195.704956,321.920166
	C1209.666748,322.484589 1223.646973,322.642944 1237.621826,322.826935
	C1246.786377,322.947632 1255.953735,322.849731 1264.140137,322.849731
	C1263.486084,324.266449 1262.180908,326.111816 1261.777100,328.137054
	C1259.966675,337.214325 1263.179077,344.999939 1269.173706,351.494202
	C1274.875732,357.671448 1278.483521,364.803131 1280.884399,372.680878
	C1282.034180,376.454071 1282.963989,380.294342 1284.084106,384.439575
	C1285.120239,383.785797 1285.867920,383.447906 1286.451294,382.926147
	C1297.714966,372.851715 1305.193359,360.515076 1308.043335,345.629669
	C1309.449341,338.285461 1310.355469,330.834869 1311.213989,323.400818
	C1311.680420,319.362091 1313.402710,317.353760 1318.474243,317.825073
z"/>
<path fill="#3ee7cd" opacity="1.000000" stroke="none"
	d="
M888.674561,412.014557
	C888.743591,410.184631 888.872925,408.354736 888.873047,406.524811
	C888.881592,302.555267 888.857422,198.585709 888.952087,94.616257
	C888.956238,90.062279 888.419373,87.805496 882.865051,87.808685
	C634.604492,87.951057 386.343903,87.935219 138.083282,87.940178
	C137.417099,87.940193 136.750931,87.969788 135.627426,88.008591
	C137.100296,87.621422 139.030304,86.853233 140.960709,86.852242
	C252.764557,86.794556 364.568420,86.800323 476.372314,86.800201
	C611.836609,86.800056 747.300964,86.800156 882.765259,86.800140
	C884.881470,86.800140 886.997742,86.800140 889.374512,86.800140
	C889.496460,88.821739 889.661987,90.287125 889.662170,91.752518
	C889.674988,197.557983 889.675171,303.363464 889.667480,409.168915
	C889.667358,410.163635 889.547424,411.158386 889.145752,412.267670
	C888.808044,412.382233 888.674561,412.014557 888.674561,412.014557
z"/>
<path fill="#3ee7cd" opacity="1.000000" stroke="none"
	d="
M904.138550,412.390320
	C1155.280151,411.988983 1406.579590,411.994629 1658.327515,412.005951
	C1657.321655,412.377258 1655.867188,413.063019 1654.412720,413.063293
	C1405.693237,413.110535 1156.973877,413.109314 908.254456,413.096130
	C906.935059,413.096069 905.615601,412.901215 904.138550,412.390320
z"/>
<path fill="#3ee7cd" opacity="1.000000" stroke="none"
	d="
M1658.655273,87.579376
	C1409.489868,87.988403 1160.201538,87.993828 910.913330,88.000679
	C908.913818,88.000732 906.914246,88.020111 904.448364,88.025574
	C905.448364,87.644287 906.914612,86.938408 908.381042,86.938126
	C1157.109619,86.889755 1405.838135,86.891434 1654.566650,86.903763
	C1655.888550,86.903824 1657.210449,87.081238 1658.655273,87.579376
z"/>
<path fill="#3ee7cd" opacity="1.000000" stroke="none"
	d="
M888.237549,412.008636
	C888.674561,412.014557 888.808044,412.382233 888.880249,412.563995
	C887.137390,412.866852 885.322449,413.093933 883.507446,413.094055
	C635.984680,413.109741 388.461884,413.109528 140.939087,413.097229
	C139.117599,413.097137 137.296112,412.920563 135.349380,412.421753
	C386.082916,412.012329 636.941711,412.007538 888.237549,412.008636
z"/>
<path fill="#F6FBFE" opacity="1.000000" stroke="none"
	d="
M252.587753,197.031662
	C256.628052,199.129517 257.885162,202.639038 257.853912,206.958328
	C257.782837,216.788132 257.735504,226.620026 257.863007,236.448685
	C257.946289,242.871185 255.225281,247.044785 249.255096,249.608490
	C232.182434,256.939758 214.718857,259.818604 196.803085,253.557510
	C176.057465,246.307449 163.030457,226.372360 163.239120,202.358047
	C163.448349,178.282089 175.082352,158.979752 196.649521,151.013596
	C213.924881,144.632690 230.967545,146.430969 247.432190,154.405396
	C249.375122,155.346466 251.171188,156.590195 253.112000,157.536407
	C257.095245,159.478363 258.402130,162.572571 256.752045,166.582901
	C255.261261,170.206009 251.524780,170.649139 246.844788,168.761673
	C240.255814,166.104279 233.674210,163.031158 226.785233,161.589920
	C206.499313,157.345932 187.490234,166.897110 180.476944,184.104767
	C172.472916,203.743256 178.595428,227.241241 195.253433,237.380997
	C210.953476,246.937607 227.341461,245.375122 243.465195,237.855362
	C244.389404,237.424332 245.316956,235.863373 245.336884,234.811127
	C245.491013,226.670517 245.421860,218.525665 245.421860,209.596329
	C239.197525,209.596329 233.273819,209.602524 227.350143,209.593063
	C225.185013,209.589600 222.798172,210.118027 220.910553,209.382339
	C218.508224,208.446030 215.674515,206.926910 214.538177,204.837204
	C212.927933,201.875992 214.725815,199.096741 218.480026,197.283447
	C230.323532,197.067596 241.455643,197.049637 252.587753,197.031662
z"/>
<path fill="#F7FCFE" opacity="1.000000" stroke="none"
	d="
M513.417847,251.268112
	C511.564240,255.348923 508.572418,256.900604 504.737885,255.701019
	C501.080811,254.556992 499.984222,251.466553 499.988342,247.784088
	C500.024353,215.803650 499.987915,183.823135 500.025970,151.842697
	C500.032471,146.385834 502.674408,143.253632 506.937347,143.247238
	C511.203613,143.240845 513.778870,146.346909 513.807434,151.845932
	C513.867004,163.314041 513.825378,174.782654 513.825378,186.430542
	C518.760193,183.543518 523.102844,180.063477 528.056152,178.273163
	C546.270874,171.689713 565.279053,180.242065 573.160217,198.029526
	C581.728638,217.367920 575.812988,240.342438 559.527039,250.977264
	C546.182678,259.691193 529.663513,258.678772 517.391907,248.401581
	C516.518982,247.670547 515.611755,246.980621 514.239441,245.888885
	C513.966431,247.842163 513.752380,249.373459 513.417847,251.268112
M559.963806,201.767349
	C558.385742,199.656372 557.064392,197.277405 555.186829,195.479141
	C545.219666,185.932938 527.830811,187.064957 516.486511,198.095566
	C515.041138,199.501038 514.026428,201.999146 513.942017,204.037842
	C513.639648,211.339081 514.250549,218.693512 513.688416,225.963806
	C513.235107,231.826645 515.766113,235.320770 520.374756,238.020721
	C521.662781,238.775284 522.900330,239.621445 524.216309,240.321808
	C541.431335,249.483795 559.548889,241.141006 562.577454,222.472397
	C563.678162,215.687683 563.237183,208.883514 559.963806,201.767349
z"/>
<path fill="#F8FDFE" opacity="1.000000" stroke="none"
	d="
M369.012970,242.201279
	C372.209839,241.069336 374.972961,239.910797 377.827667,239.059357
	C381.078674,238.089706 383.864929,239.030212 385.415497,242.145920
	C386.940033,245.209259 385.588898,247.767197 383.038086,249.498901
	C366.902710,260.452759 335.422241,260.246918 322.770538,241.975494
	C311.205902,225.273956 314.373627,195.204941 330.180725,183.212708
	C342.513702,173.856171 356.228180,173.379242 369.692505,180.220657
	C383.248840,187.108826 388.192963,199.634766 388.675934,214.134720
	C388.835632,218.930222 385.902649,221.158966 380.384003,221.176529
	C365.559265,221.223724 350.734253,221.193314 335.909363,221.193680
	C334.093781,221.193726 332.278198,221.193680 330.456482,221.193680
	C330.716003,233.774902 339.637390,242.930115 352.831787,243.677963
	C358.051788,243.973801 363.354584,242.809692 369.012970,242.201279
M372.044647,209.993835
	C374.046082,210.176529 374.976166,209.715897 374.709564,207.273026
	C373.441895,195.656403 362.920868,187.222046 350.388123,187.988846
	C338.908661,188.691208 330.126404,198.178848 330.367065,209.995377
	C343.946320,209.995377 357.536377,209.995377 372.044647,209.993835
z"/>
<path fill="#F8FDFE" opacity="1.000000" stroke="none"
	d="
M651.913879,221.194885
	C636.447815,221.195023 621.467957,221.195023 606.523682,221.195023
	C605.691467,229.930450 611.794495,238.862747 620.722473,241.978012
	C630.451904,245.372910 640.078247,244.348923 649.500916,240.649933
	C656.253296,237.999176 659.500000,238.357010 661.214417,242.210739
	C662.860413,245.910553 660.907166,249.138824 654.329163,251.924530
	C636.837097,259.332245 619.592102,259.948242 603.939026,247.631058
	C594.307251,240.051941 591.827332,228.892578 591.691772,217.209579
	C591.543274,204.408798 594.551514,192.494003 604.844238,184.064896
	C616.966248,174.137772 630.793823,173.204315 644.647339,179.878342
	C658.794006,186.693558 664.045593,199.273361 664.254700,214.301514
	C664.314819,218.619995 661.867432,221.066345 657.398376,221.163437
	C655.732849,221.199631 654.066284,221.185791 651.913879,221.194885
M640.690308,191.690155
	C632.652283,186.645966 624.422791,186.384964 616.290710,191.213211
	C609.395081,195.307327 606.141479,201.617172 605.898376,209.716705
	C621.045288,209.716705 635.737305,209.716705 650.531982,209.716705
	C650.156738,202.196823 647.127686,196.399765 640.690308,191.690155
z"/>
<path fill="#FAFDFE" opacity="1.000000" stroke="none"
	d="
M466.781250,182.175995
	C474.652832,189.365448 476.723969,198.465714 476.821686,208.212723
	C476.948578,220.866425 476.865204,233.522400 476.836121,246.177292
	C476.833099,247.495850 476.705414,248.839584 476.428955,250.127289
	C475.577209,254.094589 473.102661,256.293121 468.998505,255.962219
	C464.812622,255.624725 462.885681,252.915771 462.861115,248.879822
	C462.803345,239.388947 462.835266,229.897522 462.831604,220.406311
	C462.830017,216.243484 462.916412,212.078552 462.814209,207.918228
	C462.428467,192.214600 452.488403,184.742264 437.842499,190.434326
	C431.829742,192.771149 426.996307,198.292648 421.888245,202.670914
	C420.948944,203.475998 421.049377,205.748520 421.041473,207.345551
	C420.979034,220.000214 421.011749,232.655319 420.999420,245.310287
	C420.997955,246.806381 421.081879,248.335785 420.813110,249.791962
	C420.091797,253.699875 417.830505,256.155945 413.663910,255.974350
	C409.544067,255.794769 407.205963,253.311462 407.072205,249.272034
	C406.868469,243.117706 406.996399,236.952209 406.994720,230.791458
	C406.990753,216.138336 406.986206,201.485199 406.996552,186.832077
	C407.001312,180.071304 409.299316,176.854370 414.022369,176.925156
	C418.515259,176.992493 420.760620,180.081451 421.011719,186.527298
	C421.036865,187.172424 421.104614,187.815872 421.211151,189.245972
	C434.937164,176.496964 449.442078,170.298248 466.781250,182.175995
z"/>
<path fill="#F7FCFE" opacity="1.000000" stroke="none"
	d="
M834.714111,227.048340
	C826.875549,224.679230 819.364624,222.558029 811.935303,220.181885
	C800.296997,216.459564 794.604248,209.236176 795.037292,199.080307
	C795.496826,188.299622 802.518494,179.960190 813.674622,177.296204
	C825.035095,174.583435 836.135681,176.038025 847.008179,179.912445
	C850.632446,181.203949 851.940552,184.022736 850.846802,187.447723
	C849.749756,190.883057 846.947144,192.063004 843.307251,191.512238
	C836.758057,190.521255 830.193237,189.148712 823.614502,189.025665
	C819.861389,188.955460 815.645203,190.338882 812.383850,192.305481
	C806.262634,195.996628 806.931641,203.802826 813.612183,206.330063
	C821.511047,209.318222 829.802551,211.249802 837.837585,213.901093
	C849.796875,217.847351 854.943481,225.180237 853.998840,236.429520
	C853.185181,246.118652 845.115173,254.098557 834.264587,255.972214
	C822.080811,258.076080 810.406494,256.490021 799.281067,251.096146
	C795.076965,249.057861 793.375610,245.641510 795.091248,242.354416
	C797.119019,238.469467 800.317200,238.890289 804.108826,239.787445
	C811.471741,241.529617 818.953857,242.895355 826.459290,243.838821
	C829.088867,244.169388 832.010254,243.036148 834.658997,242.153183
	C838.524841,240.864502 840.532410,237.822723 840.758667,233.841843
	C840.977966,229.983215 838.146545,228.406204 834.714111,227.048340
z"/>
<path fill="#F6FBFE" opacity="1.000000" stroke="none"
	d="
M764.396790,256.793518
	C749.760986,253.812851 745.904480,249.157562 745.822876,234.576416
	C745.750183,221.578186 745.808044,208.579224 745.808289,195.580582
	C745.808289,193.787949 745.808228,191.995300 745.808228,189.562119
	C742.167114,189.562119 739.029541,189.768997 735.943054,189.462097
	C734.677063,189.336227 733.055176,188.354126 732.475891,187.284500
	C732.075134,186.544662 732.855774,184.661469 733.668030,183.847504
	C740.485413,177.015884 747.340637,170.215607 754.387207,163.622574
	C757.018066,161.160995 759.426636,162.270050 759.729187,166.005554
	C760.021362,169.612732 759.792480,173.262100 759.792480,177.559601
	C765.254639,177.559601 770.192017,177.593857 775.128662,177.548996
	C779.246826,177.511566 782.752808,178.694855 782.805908,183.392517
	C782.858582,188.043350 779.349731,189.479233 775.291687,189.561722
	C770.333496,189.662537 765.371643,189.585739 759.831543,189.585739
	C759.831543,197.008530 759.831543,203.958069 759.831543,210.907593
	C759.831604,218.740112 759.814575,226.572662 759.836426,234.405121
	C759.859192,242.582672 763.145447,245.474396 771.344666,244.494400
	C773.324219,244.257812 775.265381,243.688950 777.245972,243.473541
	C780.361267,243.134766 782.953003,244.096649 783.890869,247.354950
	C784.812500,250.556778 783.530090,253.341415 780.425415,254.118484
	C775.324768,255.395172 770.043091,255.948349 764.396790,256.793518
z"/>
<path fill="#F5F9FD" opacity="1.000000" stroke="none"
	d="
M296.573669,242.826523
	C296.382599,245.951614 296.996613,249.081635 295.780975,251.121109
	C294.485901,253.293915 291.415222,255.733978 289.202484,255.657684
	C287.032928,255.582886 284.593079,252.766632 283.000732,250.614288
	C282.086639,249.378723 282.520172,247.071365 282.518890,245.246384
	C282.497528,214.913101 282.503448,184.579788 282.503326,154.246490
	C282.503326,153.913162 282.500061,153.579773 282.504456,153.246490
	C282.594360,146.448822 284.879639,143.201019 289.554657,143.225143
	C294.190399,143.249069 296.552979,146.548538 296.559998,153.351715
	C296.590668,183.018311 296.573517,212.684967 296.573669,242.826523
z"/>
<path fill="#F8FCFE" opacity="1.000000" stroke="none"
	d="
M702.710266,183.712677
	C708.127563,181.003891 713.064270,177.736404 718.486816,176.288361
	C723.963501,174.825882 727.655457,177.899261 727.952332,182.312622
	C728.245544,186.672287 725.646362,189.253036 719.743347,189.514099
	C711.196716,189.892090 704.324829,193.361221 699.151672,200.000458
	C697.857117,201.661911 696.989136,204.118515 696.957092,206.225388
	C696.759644,219.203979 696.863770,232.187042 696.849426,245.168610
	C696.847778,246.662842 696.929749,248.197021 696.634155,249.643433
	C695.802185,253.714371 693.435730,256.330719 689.039551,255.958710
	C684.923462,255.610428 682.892517,252.980515 682.871643,248.893280
	C682.826660,240.072784 682.833069,231.252014 682.829163,222.431351
	C682.823792,210.281921 682.798340,198.132401 682.840942,185.983124
	C682.862305,179.899597 685.181580,176.870956 689.615967,176.884796
	C693.975037,176.898376 696.471619,179.998520 696.860718,185.870438
	C696.915405,186.695984 696.990234,187.520737 697.087158,188.342148
	C697.097229,188.427216 697.322571,188.486877 697.550659,188.616745
	C699.159851,187.082336 700.801331,185.517197 702.710266,183.712677
z"/>
<path fill="#F0F9FD" opacity="1.000000" stroke="none"
	d="
M601.798279,346.115356
	C596.016663,334.962311 595.562866,323.824310 600.297913,312.657043
	C604.055847,303.794128 611.331116,299.374756 620.722961,299.343933
	C630.309204,299.312439 637.717407,303.763062 641.609497,312.793579
	C646.035645,323.063293 645.972656,333.522217 641.310242,343.702026
	C633.824524,360.046082 612.729675,361.438385 601.798279,346.115356
M614.812256,349.273865
	C624.133545,352.110626 631.019653,349.456207 634.612061,341.139557
	C638.346863,332.493439 638.404297,323.528259 634.713379,314.902954
	C630.268127,304.514984 617.475403,302.386566 609.998169,310.367004
	C602.185791,318.705078 602.321411,342.967194 614.812256,349.273865
z"/>
<path fill="#F4FBFE" opacity="1.000000" stroke="none"
	d="
M489.177612,340.039917
	C489.177612,345.485046 489.177612,350.438629 489.177612,355.623535
	C486.713043,355.623535 484.790436,355.623535 482.515015,355.623535
	C482.515015,337.286987 482.515015,319.063232 482.515015,300.484253
	C484.492157,300.484253 486.408783,300.484253 489.035278,300.484253
	C489.035278,307.813446 489.035278,315.359100 489.035278,323.218933
	C497.973633,323.218933 506.212036,323.218933 514.880371,323.218933
	C514.880371,315.684143 514.880371,308.243774 514.880371,300.471252
	C517.353394,300.471252 519.407349,300.471252 521.833008,300.471252
	C521.833008,318.707825 521.833008,336.931763 521.833008,355.514099
	C519.773315,355.514099 517.712158,355.514099 515.103394,355.514099
	C515.103394,347.184113 515.103394,338.783844 515.103394,330.135132
	C506.320007,330.135132 498.075378,330.135132 489.177612,330.135132
	C489.177612,333.335602 489.177612,336.442017 489.177612,340.039917
z"/>
<path fill="#F0F9FD" opacity="1.000000" stroke="none"
	d="
M433.804688,347.642944
	C435.002380,346.277618 435.985901,345.186310 437.148407,343.896393
	C442.727173,348.846802 448.837891,351.685242 456.315887,350.166046
	C460.509888,349.314026 463.288269,346.942230 463.868317,342.654419
	C464.424103,338.545929 462.438751,335.611328 458.750214,333.852539
	C454.704773,331.923523 450.645081,330.022583 446.562836,328.172913
	C438.172791,324.371521 434.661743,319.001526 435.859253,311.699280
	C436.974640,304.897369 442.873413,300.074768 451.383331,299.395020
	C458.169708,298.852875 464.116882,300.923370 469.238953,306.227814
	C468.099152,307.663788 467.025818,309.016022 465.729370,310.649323
	C460.979706,306.601593 455.676392,304.459656 449.944489,306.154724
	C447.344360,306.923706 444.514465,309.352936 443.303162,311.783661
	C441.668945,315.062897 443.419464,318.390808 446.766663,320.118469
	C451.035278,322.321594 455.471100,324.203796 459.854492,326.180725
	C468.737946,330.187195 472.339996,335.930939 470.956879,343.957520
	C469.780029,350.787323 463.619598,355.929016 455.015167,356.675629
	C447.453369,357.331757 440.491241,355.443329 434.723999,350.221649
	C434.134125,349.687622 433.958405,348.696136 433.804688,347.642944
z"/>
<path fill="#F0F9FD" opacity="1.000000" stroke="none"
	d="
M580.957642,306.373840
	C568.864502,304.587402 561.446106,309.031158 559.698975,320.580536
	C558.720032,327.052094 559.262939,334.370422 561.352051,340.553070
	C564.992615,351.327515 577.471252,353.819550 586.267029,346.511932
	C586.894958,345.990204 587.522766,345.468414 588.268250,344.848938
	C589.040222,345.430939 589.739685,345.856445 590.309753,346.414185
	C590.999512,347.088989 591.579834,347.875671 592.354248,348.786469
	C586.787231,355.256775 579.989746,357.659515 571.789246,356.462036
	C562.633911,355.125183 556.678040,349.751831 553.592773,341.353821
	C549.936401,331.401581 550.237549,321.371918 555.066040,311.828827
	C562.036072,298.052887 580.673218,295.129120 590.889221,306.380157
	C589.775574,307.647797 588.630615,308.951111 587.465515,310.277374
	C585.242798,308.926025 583.285706,307.736206 580.957642,306.373840
z"/>
<path fill="#F0F9FD" opacity="1.000000" stroke="none"
	d="
M379.847504,349.808838
	C379.847290,351.920135 379.847290,353.557159 379.847290,355.638062
	C377.525604,355.739838 375.604614,355.824066 373.235596,355.927917
	C373.235596,337.376495 373.235596,319.031708 373.235596,300.400665
	C383.544159,300.400665 393.792633,300.400665 404.600403,300.400665
	C404.689392,302.094696 404.778992,303.801270 404.901398,306.132202
	C396.483734,306.132202 388.427887,306.132202 380.116882,306.132202
	C380.116882,312.638947 380.116882,318.545563 380.116882,324.935608
	C387.006897,324.935608 393.751709,324.935608 400.405640,324.935608
	C401.520294,331.728241 401.345367,331.948456 395.139587,331.960297
	C390.192749,331.969757 385.245911,331.962219 379.847717,331.962219
	C379.847717,338.102570 379.847717,343.718597 379.847504,349.808838
z"/>
<path fill="#F0F9FD" opacity="1.000000" stroke="none"
	d="
M421.361542,300.762146
	C421.643219,319.175476 421.643219,337.232788 421.643219,355.583679
	C419.422363,355.583679 417.507599,355.583679 415.193695,355.583679
	C415.193695,337.307007 415.193695,318.988220 415.193695,300.406189
	C417.230743,300.406189 419.155304,300.406189 421.361542,300.762146
z"/>
<path fill="#3ee7cd" opacity="1.000000" stroke="none"
	d="
M252.321198,196.762405
	C241.455643,197.049637 230.323532,197.067596 218.758606,197.050659
	C219.546188,196.670547 220.769196,196.018234 221.986572,196.028595
	C232.009857,196.113846 242.032074,196.322159 252.321198,196.762405
z"/>
<path fill="#E8F6FB" opacity="1.000000" stroke="none"
	d="
M1318.029297,317.861023
	C1313.402710,317.353760 1311.680420,319.362091 1311.213989,323.400818
	C1310.355469,330.834869 1309.449341,338.285461 1308.043335,345.629669
	C1305.193359,360.515076 1297.714966,372.851715 1286.451294,382.926147
	C1285.867920,383.447906 1285.120239,383.785797 1284.084106,384.439575
	C1282.963989,380.294342 1282.034180,376.454071 1280.884399,372.680878
	C1278.483521,364.803131 1274.875732,357.671448 1269.173706,351.494202
	C1263.179077,344.999939 1259.966675,337.214325 1261.777100,328.137054
	C1262.180908,326.111816 1263.486084,324.266449 1264.140137,322.849731
	C1255.953735,322.849731 1246.786377,322.947632 1237.621826,322.826935
	C1223.646973,322.642944 1209.666748,322.484589 1195.704956,321.920166
	C1191.924805,321.767395 1189.134033,322.550140 1187.273926,325.722046
	C1184.596802,330.287140 1181.641113,334.773621 1179.651733,339.640045
	C1175.115601,350.736053 1168.634644,360.135681 1158.267456,366.438446
	C1157.057373,367.173981 1154.702026,367.421814 1153.600586,366.735565
	C1126.046509,349.568695 1100.440796,330.096466 1080.574463,303.972992
	C1079.581787,302.667511 1078.669067,301.301208 1077.179077,299.202698
	C1084.291992,299.202698 1090.713379,299.202698 1097.134766,299.202698
	C1084.380859,293.599487 1071.255737,290.905151 1057.488525,290.992249
	C1039.273682,291.107483 1023.646118,297.058472 1009.340271,308.522125
	C988.981323,324.836304 966.640381,337.999725 941.215576,345.089417
	C936.289307,346.463104 931.193542,347.228973 926.460449,348.215881
	C931.339661,339.374786 936.744263,331.031555 940.734253,322.059265
	C949.928711,301.383850 953.667786,279.331787 953.584412,256.885071
	C953.504211,235.278473 952.775635,213.593948 950.673035,192.106003
	C949.456055,179.669174 944.967834,167.551773 941.939148,155.293762
	C941.544556,153.696854 941.073303,152.118912 940.447327,149.839767
	C960.474670,150.576157 977.937866,156.194763 991.247559,171.151962
	C1001.529114,182.706329 1011.080017,194.908188 1021.121765,206.680573
	C1023.912231,209.952072 1027.253052,212.763229 1030.412109,215.709717
	C1040.318359,224.949280 1052.229492,228.019623 1065.447998,226.947983
	C1071.474365,226.459412 1077.495850,225.911469 1083.999390,225.348953
	C1078.861206,223.334335 1074.140015,222.203812 1070.310669,219.705917
	C1068.086670,218.255234 1065.949829,214.447571 1066.243652,211.996490
	C1066.527588,209.627258 1069.588379,206.736664 1072.109741,205.642639
	C1081.307373,201.651688 1089.882324,203.773956 1097.985718,209.341095
	C1101.762451,211.935760 1105.909424,214.076935 1110.091064,215.978195
	C1118.118774,219.628082 1125.793457,216.615952 1133.254761,213.883255
	C1161.629395,203.491013 1189.932617,192.903229 1218.262451,182.388550
	C1218.165405,181.834106 1218.068237,181.279663 1217.971069,180.725220
	C1210.579956,181.107773 1203.188721,181.490326 1195.721313,181.876831
	C1195.917114,181.436996 1195.969360,181.014877 1196.156250,180.942947
	C1213.410767,174.304703 1219.113525,159.460541 1222.950806,143.283783
	C1224.217041,137.945587 1225.354980,132.571732 1226.802612,127.282867
	C1229.924561,115.876701 1236.531250,112.150665 1247.408936,116.918068
	C1256.338013,120.831482 1264.820435,125.901634 1273.127441,131.060226
	C1282.541260,136.905991 1292.482422,141.119263 1303.058594,144.411819
	C1310.326782,146.674561 1316.908813,144.372635 1323.723389,143.675949
	C1373.069702,138.631042 1422.376221,133.188843 1471.736572,128.289108
	C1491.602661,126.317139 1511.593262,125.631165 1531.487427,123.901459
	C1543.580322,122.850029 1555.561279,120.326485 1567.660767,119.599541
	C1575.660034,119.118950 1583.864990,120.145058 1591.816162,121.468163
	C1596.873657,122.309761 1598.461426,126.514320 1595.852173,131.008713
	C1593.903564,134.365036 1591.354370,137.977814 1588.129150,139.857391
	C1582.081421,143.381729 1579.069702,148.637299 1577.409058,154.828125
	C1575.186646,163.113419 1573.525635,171.549316 1571.668701,179.721436
	C1579.863403,179.721436 1588.491089,180.168259 1597.034668,179.514145
	C1600.750244,179.229645 1604.937744,177.436951 1607.779053,175.006241
	C1613.612305,170.015808 1622.320435,170.897873 1628.143677,175.136581
	C1631.143677,177.320221 1631.262207,180.072998 1628.804321,182.813766
	C1627.926025,183.793106 1626.839966,184.614182 1625.757568,185.378265
	C1606.883057,198.702255 1587.903809,211.879944 1569.132690,225.347946
	C1548.610718,240.072296 1526.173950,251.277130 1503.314941,261.722412
	C1500.300415,263.099854 1499.247681,264.442902 1499.573730,268.004639
	C1500.898315,282.475983 1499.925049,296.670349 1491.779663,309.387909
	C1490.114014,311.988495 1487.945679,314.267212 1486.007080,316.696960
	C1479.912109,309.286957 1474.415161,302.185242 1468.477539,295.473297
	C1456.581299,282.025513 1456.409546,281.913818 1439.806885,287.927124
	C1400.411621,302.195740 1360.100220,312.654022 1318.029297,317.861023
M1206.025146,318.816467
	C1234.799194,317.907074 1263.601074,317.510132 1292.339844,315.950836
	C1323.995483,314.233185 1355.156494,308.759491 1385.806274,300.612762
	C1416.071533,292.568237 1445.491699,282.007202 1474.331177,269.878418
	C1509.480469,255.095993 1544.101440,239.342728 1574.844849,216.173203
	C1590.505127,204.370895 1606.891968,193.532852 1622.938599,182.242249
	C1624.109375,181.418427 1625.184082,180.458038 1626.379761,179.500046
	C1620.993164,175.149643 1615.455322,174.197952 1611.606934,177.522812
	C1605.024292,183.209671 1597.657471,184.786209 1589.284912,183.416809
	C1587.036011,183.048996 1584.638184,183.350937 1582.335693,183.597839
	C1575.807373,184.297943 1569.292969,185.128693 1562.869751,185.896423
	C1565.178589,180.925690 1567.848022,176.294464 1569.493408,171.324188
	C1571.155884,166.302505 1571.663818,160.910721 1572.927612,155.742233
	C1574.870728,147.795380 1578.190186,140.929428 1585.807861,136.450958
	C1589.051270,134.544128 1591.098511,130.602554 1594.577759,126.551079
	C1590.149048,125.324646 1587.493652,123.981041 1584.829346,123.962906
	C1576.021484,123.902977 1567.169922,123.869240 1558.409058,124.651802
	C1540.841187,126.221054 1523.344849,128.591415 1505.776978,130.159485
	C1485.883179,131.935135 1465.913330,132.876282 1446.030396,134.750748
	C1415.529785,137.626144 1385.053833,140.799942 1354.608398,144.211533
	C1334.281006,146.489319 1313.591309,147.401840 1294.129883,154.218811
	C1279.915405,159.197876 1266.413208,166.173355 1252.423706,171.839691
	C1221.773071,184.254471 1191.033691,196.451157 1160.294434,208.645981
	C1131.854858,219.928528 1102.557617,227.643646 1072.005859,230.725845
	C1052.976196,232.645645 1036.100342,229.210953 1022.991943,214.394089
	C1012.084045,202.064651 1001.408691,189.520737 990.910034,176.840256
	C979.414673,162.955887 964.422974,156.423523 946.415100,154.309311
	C946.732666,156.135742 946.783264,157.443054 947.191711,158.626953
	C956.966553,186.964218 958.121033,216.356339 958.046692,245.923553
	C957.984802,270.538696 955.933899,294.857819 946.958313,318.045319
	C943.831421,326.123199 939.756287,333.834015 935.719482,342.566345
	C941.961853,340.518951 947.714844,338.945221 953.229309,336.767548
	C973.665588,328.697144 992.111511,317.177826 1009.256104,303.553101
	C1019.914307,295.083130 1031.634644,289.533905 1045.297852,287.744263
	C1064.637329,285.211121 1082.970337,289.064087 1101.280396,294.696411
	C1135.303467,305.162140 1169.260376,316.052032 1206.025146,318.816467
M1182.116699,325.564331
	C1183.180664,324.161438 1184.244629,322.758545 1185.494507,321.110504
	C1184.406128,320.675903 1183.826172,320.363068 1183.206787,320.208771
	C1160.650146,314.590027 1137.972412,309.409210 1115.583130,303.189362
	C1105.416626,300.365051 1096.220825,304.733459 1085.519043,303.461365
	C1086.815674,305.229218 1087.174927,305.770264 1087.584595,306.270203
	C1106.039551,328.796814 1128.830933,346.213959 1153.225586,361.690216
	C1154.429077,362.453705 1157.101440,362.200348 1158.370605,361.348663
	C1166.050171,356.195221 1171.116943,348.896210 1174.771484,340.474426
	C1176.880615,335.614380 1179.351807,330.911438 1182.116699,325.564331
M1265.238037,160.737717
	C1276.241577,156.373550 1287.245117,152.009369 1297.988892,147.748199
	C1291.720215,144.981293 1285.057739,142.474945 1278.820923,139.166290
	C1272.518433,135.822845 1266.720459,131.542450 1260.544434,127.942017
	C1256.104492,125.353798 1251.543701,122.871613 1246.794678,120.936371
	C1237.374756,117.097733 1233.289429,119.234917 1230.539307,128.860565
	C1230.082397,130.459656 1229.624634,132.062592 1229.269897,133.686172
	C1225.975952,148.761597 1223.119507,164.006058 1211.372925,176.736374
	C1221.595581,176.487320 1230.710449,178.166992 1239.475464,173.254364
	C1247.572876,168.715851 1256.193359,165.110321 1265.238037,160.737717
M1284.724487,370.722961
	C1285.281860,372.658234 1285.839233,374.593475 1286.494751,376.869019
	C1303.969482,360.910828 1304.851562,339.814667 1307.606323,319.065918
	C1297.625854,319.803528 1287.795532,320.052643 1278.110718,321.370544
	C1266.841797,322.903961 1262.695190,331.191101 1267.450806,341.530182
	C1268.548218,343.916168 1269.989258,346.289185 1271.784302,348.182831
	C1277.756714,354.483643 1281.778198,361.835114 1284.724487,370.722961
M1493.043701,297.316254
	C1496.155151,287.040985 1496.837036,276.650513 1495.070801,265.628540
	C1482.802368,270.779907 1471.177368,275.661133 1459.932373,280.382782
	C1468.951050,290.358490 1477.669189,300.001892 1486.882568,310.192902
	C1488.930176,306.038849 1490.890625,302.061432 1493.043701,297.316254
M1092.518799,210.810501
	C1088.222778,209.839890 1083.960083,208.331879 1079.620605,208.063797
	C1075.960083,207.837692 1070.654053,208.328812 1070.328735,212.669342
	C1069.990234,217.184708 1075.125122,218.470688 1078.986450,219.384857
	C1082.022827,220.103683 1085.747803,219.223785 1088.244995,220.658524
	C1094.991577,224.534515 1101.232178,222.167664 1107.703491,220.678070
	C1102.769409,217.450699 1097.971802,214.312531 1092.518799,210.810501
z"/>
<path fill="#3ee7cd" opacity="1.000000" stroke="none"
	d="
M560.100830,202.123703
	C563.237183,208.883514 563.678162,215.687683 562.577454,222.472397
	C559.548889,241.141006 541.431335,249.483795 524.216309,240.321808
	C522.900330,239.621445 521.662781,238.775284 520.374756,238.020721
	C515.766113,235.320770 513.235107,231.826645 513.688416,225.963806
	C514.250549,218.693512 513.639648,211.339081 513.942017,204.037842
	C514.026428,201.999146 515.041138,199.501038 516.486511,198.095566
	C527.830811,187.064957 545.219666,185.932938 555.186829,195.479141
	C557.064392,197.277405 558.385742,199.656372 560.100830,202.123703
z"/>
<path fill="#3ee7cd" opacity="1.000000" stroke="none"
	d="
M371.585571,209.994598
	C357.536377,209.995377 343.946320,209.995377 330.367065,209.995377
	C330.126404,198.178848 338.908661,188.691208 350.388123,187.988846
	C362.920868,187.222046 373.441895,195.656403 374.709564,207.273026
	C374.976166,209.715897 374.046082,210.176529 371.585571,209.994598
z"/>
<path fill="#3ee7cd" opacity="1.000000" stroke="none"
	d="
M641.010010,191.870819
	C647.127686,196.399765 650.156738,202.196823 650.531982,209.716705
	C635.737305,209.716705 621.045288,209.716705 605.898376,209.716705
	C606.141479,201.617172 609.395081,195.307327 616.290710,191.213211
	C624.422791,186.384964 632.652283,186.645966 641.010010,191.870819
z"/>
<path fill="#3ee7cd" opacity="1.000000" stroke="none"
	d="
M614.450073,349.097168
	C602.321411,342.967194 602.185791,318.705078 609.998169,310.367004
	C617.475403,302.386566 630.268127,304.514984 634.713379,314.902954
	C638.404297,323.528259 638.346863,332.493439 634.612061,341.139557
	C631.019653,349.456207 624.133545,352.110626 614.450073,349.097168
z"/>
<path fill="#3ee7cd" opacity="1.000000" stroke="none"
	d="
M1205.559448,318.791260
	C1169.260376,316.052032 1135.303467,305.162140 1101.280396,294.696411
	C1082.970337,289.064087 1064.637329,285.211121 1045.297852,287.744263
	C1031.634644,289.533905 1019.914307,295.083130 1009.256104,303.553101
	C992.111511,317.177826 973.665588,328.697144 953.229309,336.767548
	C947.714844,338.945221 941.961853,340.518951 935.719482,342.566345
	C939.756287,333.834015 943.831421,326.123199 946.958313,318.045319
	C955.933899,294.857819 957.984802,270.538696 958.046692,245.923553
	C958.121033,216.356339 956.966553,186.964218 947.191711,158.626953
	C946.783264,157.443054 946.732666,156.135742 946.415100,154.309311
	C964.422974,156.423523 979.414673,162.955887 990.910034,176.840256
	C1001.408691,189.520737 1012.084045,202.064651 1022.991943,214.394089
	C1036.100342,229.210953 1052.976196,232.645645 1072.005859,230.725845
	C1102.557617,227.643646 1131.854858,219.928528 1160.294434,208.645981
	C1191.033691,196.451157 1221.773071,184.254471 1252.423706,171.839691
	C1266.413208,166.173355 1279.915405,159.197876 1294.129883,154.218811
	C1313.591309,147.401840 1334.281006,146.489319 1354.608398,144.211533
	C1385.053833,140.799942 1415.529785,137.626144 1446.030396,134.750748
	C1465.913330,132.876282 1485.883179,131.935135 1505.776978,130.159485
	C1523.344849,128.591415 1540.841187,126.221054 1558.409058,124.651802
	C1567.169922,123.869240 1576.021484,123.902977 1584.829346,123.962906
	C1587.493652,123.981041 1590.149048,125.324646 1594.577759,126.551079
	C1591.098511,130.602554 1589.051270,134.544128 1585.807861,136.450958
	C1578.190186,140.929428 1574.870728,147.795380 1572.927612,155.742233
	C1571.663818,160.910721 1571.155884,166.302505 1569.493408,171.324188
	C1567.848022,176.294464 1565.178589,180.925690 1562.869751,185.896423
	C1569.292969,185.128693 1575.807373,184.297943 1582.335693,183.597839
	C1584.638184,183.350937 1587.036011,183.048996 1589.284912,183.416809
	C1597.657471,184.786209 1605.024292,183.209671 1611.606934,177.522812
	C1615.455322,174.197952 1620.993164,175.149643 1626.379761,179.500046
	C1625.184082,180.458038 1624.109375,181.418427 1622.938599,182.242249
	C1606.891968,193.532852 1590.505127,204.370895 1574.844849,216.173203
	C1544.101440,239.342728 1509.480469,255.095993 1474.331177,269.878418
	C1445.491699,282.007202 1416.071533,292.568237 1385.806274,300.612762
	C1355.156494,308.759491 1323.995483,314.233185 1292.339844,315.950836
	C1263.601074,317.510132 1234.799194,317.907074 1205.559448,318.791260
M1464.162964,253.656036
	C1458.218140,258.637238 1452.697754,264.290894 1446.197998,268.392883
	C1440.717773,271.851501 1437.347290,269.393127 1434.354736,263.746796
	C1431.055298,257.521606 1427.416992,251.200760 1422.672607,246.083923
	C1416.282349,239.191788 1408.693726,233.410690 1401.545532,227.087479
	C1402.003174,226.787720 1402.656982,226.297256 1403.365112,225.904816
	C1415.400024,219.235168 1428.453125,217.191345 1441.956543,218.008209
	C1453.404663,218.700760 1464.804199,220.191650 1476.251831,220.898834
	C1479.682495,221.110779 1483.202393,219.876236 1486.681396,219.304367
	C1481.571899,219.634476 1476.174072,220.101730 1471.424561,218.564850
	C1457.534424,214.070145 1443.362671,213.098969 1429.041260,214.145981
	C1416.270264,215.079651 1404.396240,219.059677 1393.990234,227.066025
	C1400.690308,232.423752 1407.330688,237.383972 1413.563843,242.811768
	C1420.461914,248.818466 1427.128540,255.099487 1430.298950,264.141937
	C1433.626709,273.633423 1439.973999,276.213257 1449.090088,271.865692
	C1451.327148,270.798859 1453.721069,269.633881 1455.398804,267.893219
	C1463.334351,259.660858 1471.048096,251.214478 1478.812988,242.818558
	C1478.871826,242.754822 1478.541504,242.331161 1477.919434,241.260529
	C1473.412720,245.283691 1469.021484,249.203842 1464.162964,253.656036
M1475.908813,164.546265
	C1477.338257,161.516006 1478.767822,158.485733 1480.294434,155.249435
	C1474.904541,155.910751 1466.626221,173.874298 1467.059082,181.472916
	C1467.837036,195.126968 1470.591064,204.457581 1474.734375,205.556549
	C1471.437744,192.075546 1468.566406,178.566681 1475.908813,164.546265
M1541.257324,152.869614
	C1542.694458,156.077560 1545.191895,158.190445 1548.623413,157.159286
	C1550.669434,156.544434 1553.142090,154.551361 1553.726807,152.654861
	C1554.315796,150.744522 1553.471802,147.488342 1552.026978,146.109879
	C1550.589600,144.738693 1547.399780,144.138596 1545.380127,144.684982
	C1542.077881,145.578369 1540.588257,148.502258 1541.257324,152.869614
M1522.869385,229.901779
	C1531.943604,230.498901 1540.905029,230.303146 1549.305054,225.633514
	C1536.020264,225.633514 1522.735352,225.633514 1509.450562,225.633514
	C1509.376587,225.869583 1509.302612,226.105652 1509.228516,226.341705
	C1513.474121,227.494644 1517.719604,228.647583 1522.869385,229.901779
z"/>
<path fill="#3ee7cd" opacity="1.000000" stroke="none"
	d="
M1181.888428,325.851074
	C1179.351807,330.911438 1176.880615,335.614380 1174.771484,340.474426
	C1171.116943,348.896210 1166.050171,356.195221 1158.370605,361.348663
	C1157.101440,362.200348 1154.429077,362.453705 1153.225586,361.690216
	C1128.830933,346.213959 1106.039551,328.796814 1087.584595,306.270203
	C1087.174927,305.770264 1086.815674,305.229218 1085.519043,303.461365
	C1096.220825,304.733459 1105.416626,300.365051 1115.583130,303.189362
	C1137.972412,309.409210 1160.650146,314.590027 1183.206787,320.208771
	C1183.826172,320.363068 1184.406128,320.675903 1185.494507,321.110504
	C1184.244629,322.758545 1183.180664,324.161438 1181.888428,325.851074
z"/>
<path fill="#3ee7cd" opacity="1.000000" stroke="none"
	d="
M1264.910645,160.915802
	C1256.193359,165.110321 1247.572876,168.715851 1239.475464,173.254364
	C1230.710449,178.166992 1221.595581,176.487320 1211.372925,176.736374
	C1223.119507,164.006058 1225.975952,148.761597 1229.269897,133.686172
	C1229.624634,132.062592 1230.082397,130.459656 1230.539307,128.860565
	C1233.289429,119.234917 1237.374756,117.097733 1246.794678,120.936371
	C1251.543701,122.871613 1256.104492,125.353798 1260.544434,127.942017
	C1266.720459,131.542450 1272.518433,135.822845 1278.820923,139.166290
	C1285.057739,142.474945 1291.720215,144.981293 1297.988892,147.748199
	C1287.245117,152.009369 1276.241577,156.373550 1264.910645,160.915802
z"/>
<path fill="#3ee7cd" opacity="1.000000" stroke="none"
	d="
M1284.570068,370.373993
	C1281.778198,361.835114 1277.756714,354.483643 1271.784302,348.182831
	C1269.989258,346.289185 1268.548218,343.916168 1267.450806,341.530182
	C1262.695190,331.191101 1266.841797,322.903961 1278.110718,321.370544
	C1287.795532,320.052643 1297.625854,319.803528 1307.606323,319.065918
	C1304.851562,339.814667 1303.969482,360.910828 1286.494751,376.869019
	C1285.839233,374.593475 1285.281860,372.658234 1284.570068,370.373993
z"/>
<path fill="#3ee7cd" opacity="1.000000" stroke="none"
	d="
M1492.947510,297.700134
	C1490.890625,302.061432 1488.930176,306.038849 1486.882568,310.192902
	C1477.669189,300.001892 1468.951050,290.358490 1459.932373,280.382782
	C1471.177368,275.661133 1482.802368,270.779907 1495.070801,265.628540
	C1496.837036,276.650513 1496.155151,287.040985 1492.947510,297.700134
z"/>
<path fill="#3ee7cd" opacity="1.000000" stroke="none"
	d="
M1092.846436,210.992432
	C1097.971802,214.312531 1102.769409,217.450699 1107.703491,220.678070
	C1101.232178,222.167664 1094.991577,224.534515 1088.244995,220.658524
	C1085.747803,219.223785 1082.022827,220.103683 1078.986450,219.384857
	C1075.125122,218.470688 1069.990234,217.184708 1070.328735,212.669342
	C1070.654053,208.328812 1075.960083,207.837692 1079.620605,208.063797
	C1083.960083,208.331879 1088.222778,209.839890 1092.846436,210.992432
z"/>
<path fill="#E8F6FB" opacity="1.000000" stroke="none"
	d="
M1464.396606,253.390015
	C1469.021484,249.203842 1473.412720,245.283691 1477.919434,241.260529
	C1478.541504,242.331161 1478.871826,242.754822 1478.812988,242.818558
	C1471.048096,251.214478 1463.334351,259.660858 1455.398804,267.893219
	C1453.721069,269.633881 1451.327148,270.798859 1449.090088,271.865692
	C1439.973999,276.213257 1433.626709,273.633423 1430.298950,264.141937
	C1427.128540,255.099487 1420.461914,248.818466 1413.563843,242.811768
	C1407.330688,237.383972 1400.690308,232.423752 1393.990234,227.066025
	C1404.396240,219.059677 1416.270264,215.079651 1429.041260,214.145981
	C1443.362671,213.098969 1457.534424,214.070145 1471.424561,218.564850
	C1476.174072,220.101730 1481.571899,219.634476 1486.681396,219.304367
	C1483.202393,219.876236 1479.682495,221.110779 1476.251831,220.898834
	C1464.804199,220.191650 1453.404663,218.700760 1441.956543,218.008209
	C1428.453125,217.191345 1415.400024,219.235168 1403.365112,225.904816
	C1402.656982,226.297256 1402.003174,226.787720 1401.545532,227.087479
	C1408.693726,233.410690 1416.282349,239.191788 1422.672607,246.083923
	C1427.416992,251.200760 1431.055298,257.521606 1434.354736,263.746796
	C1437.347290,269.393127 1440.717773,271.851501 1446.197998,268.392883
	C1452.697754,264.290894 1458.218140,258.637238 1464.396606,253.390015
z"/>
<path fill="#E8F6FB" opacity="1.000000" stroke="none"
	d="
M1475.736572,164.886200
	C1468.566406,178.566681 1471.437744,192.075546 1474.734375,205.556549
	C1470.591064,204.457581 1467.837036,195.126968 1467.059082,181.472916
	C1466.626221,173.874298 1474.904541,155.910751 1480.294434,155.249435
	C1478.767822,158.485733 1477.338257,161.516006 1475.736572,164.886200
z"/>
<path fill="#F0F9FD" opacity="1.000000" stroke="none"
	d="
M1541.177979,152.488098
	C1540.588257,148.502258 1542.077881,145.578369 1545.380127,144.684982
	C1547.399780,144.138596 1550.589600,144.738693 1552.026978,146.109879
	C1553.471802,147.488342 1554.315796,150.744522 1553.726807,152.654861
	C1553.142090,154.551361 1550.669434,156.544434 1548.623413,157.159286
	C1545.191895,158.190445 1542.694458,156.077560 1541.177979,152.488098
z"/>
<path fill="#E8F6FB" opacity="1.000000" stroke="none"
	d="
M1522.417236,229.851135
	C1517.719604,228.647583 1513.474121,227.494644 1509.228516,226.341705
	C1509.302612,226.105652 1509.376587,225.869583 1509.450562,225.633514
	C1522.735352,225.633514 1536.020264,225.633514 1549.305054,225.633514
	C1540.905029,230.303146 1531.943604,230.498901 1522.417236,229.851135
z"/>
</svg>
