<?xml version="1.0" standalone="no"?>
<!DOCTYPE svg PUBLIC "-//W3C//DTD SVG 20010904//EN"
 "http://www.w3.org/TR/2001/REC-SVG-20010904/DTD/svg10.dtd">
<svg version="1.0" xmlns="http://www.w3.org/2000/svg"
 width="2400.000000pt" height="1800.000000pt" viewBox="0 0 2400.000000 1800.000000"
 preserveAspectRatio="xMidYMid meet">

<g transform="translate(0.000000,1800.000000) scale(0.100000,-0.100000)"
fill="#000000" stroke="none">
<path d="M0 9000 l0 -9000 12000 0 12000 0 0 9000 0 9000 -12000 0 -12000 0 0
-9000z m15955 0 l0 -3195 -3955 0 -3955 0 -3 3185 c-1 1752 0 3191 3 3198 3
10 800 12 3957 10 l3953 -3 0 -3195z"/>
<path d="M8190 10385 l0 -1665 3810 0 3810 0 0 1665 0 1665 -3810 0 -3810 0 0
-1665z m3573 1342 c41 -20 117 -65 168 -99 52 -33 123 -74 159 -90 62 -28 235
-80 242 -73 3 4 185 29 278 40 25 2 124 14 220 25 96 11 243 26 325 35 83 9
166 17 185 20 19 2 67 7 105 10 39 4 81 8 95 10 14 2 61 6 105 10 44 3 98 8
120 10 112 11 225 19 495 35 96 6 207 15 245 20 39 5 95 12 125 15 30 4 100
13 155 21 180 27 342 17 388 -23 42 -38 2 -129 -79 -180 -58 -37 -87 -94 -113
-220 -11 -56 -27 -117 -35 -136 l-14 -34 122 3 c66 2 135 4 152 4 20 0 52 14
85 36 30 20 69 38 87 41 38 7 112 -19 137 -47 33 -37 13 -64 -98 -132 -56 -34
-191 -130 -301 -211 -284 -213 -411 -293 -667 -420 l-226 -112 0 -120 c1 -172
-39 -303 -115 -382 l-30 -31 -61 81 c-71 95 -229 257 -250 257 -8 0 -63 -18
-123 -40 -269 -100 -595 -194 -844 -244 -139 -28 -380 -66 -421 -66 -15 0 -29
-7 -33 -15 -3 -8 -14 -77 -25 -153 -32 -216 -73 -311 -189 -434 -36 -38 -66
-67 -68 -65 -2 2 -13 38 -23 80 -25 97 -70 186 -122 245 -68 76 -96 160 -83
243 4 26 13 43 25 47 10 4 -151 6 -357 5 l-376 -1 -25 -24 c-14 -12 -52 -78
-83 -144 -32 -67 -75 -141 -96 -164 -42 -47 -130 -120 -144 -120 -16 0 -250
161 -353 243 -133 105 -301 270 -378 368 l-60 79 113 1 c129 0 125 5 -42 47
-89 22 -127 26 -245 26 -224 0 -311 -30 -492 -167 -293 -221 -580 -362 -802
-392 l-53 -7 39 49 c110 139 196 380 237 663 13 89 17 441 7 610 -13 216 -28
310 -77 486 -20 71 -39 142 -41 157 -5 27 -5 28 38 22 182 -25 337 -88 422
-171 27 -26 103 -115 170 -198 297 -367 393 -423 687 -396 139 12 176 20 99
20 -89 1 -173 61 -167 120 4 43 38 67 113 81 79 15 125 2 212 -58 112 -77 183
-89 306 -52 98 29 791 288 882 330 13 6 -28 8 -110 4 l-130 -5 66 34 c126 66
176 150 238 399 44 173 49 186 88 217 42 33 120 24 216 -23z"/>
<path d="M11583 11720 c-31 -12 -40 -33 -73 -172 -44 -185 -94 -314 -135 -348
-9 -7 -20 -20 -25 -29 -7 -14 4 -16 89 -16 94 1 98 2 211 52 63 29 163 76 221
106 58 29 152 68 210 86 57 18 111 35 119 38 8 2 -24 19 -71 37 -91 34 -98 38
-253 136 -153 97 -242 130 -293 110z"/>
<path d="M14820 11675 c-58 -7 -154 -20 -215 -29 -112 -15 -267 -28 -570 -46
-192 -12 -326 -24 -875 -81 -863 -89 -1016 -119 -1274 -250 -260 -132 -1063
-450 -1372 -544 -244 -74 -531 -120 -711 -113 -91 3 -117 8 -166 31 -119 54
-222 153 -423 404 -63 78 -135 160 -161 183 -78 68 -198 119 -340 144 -32 5
-32 5 -22 -22 29 -75 81 -310 95 -426 16 -138 23 -606 10 -726 -27 -253 -93
-484 -182 -634 -19 -32 -33 -61 -30 -63 7 -7 176 53 269 95 123 57 282 155
428 264 207 155 300 188 526 188 165 0 207 -8 548 -111 425 -127 634 -175 875
-200 143 -15 691 0 955 26 337 33 552 69 823 135 436 108 976 313 1452 552
231 115 343 187 624 397 115 86 250 181 300 211 49 30 91 60 93 66 5 15 -41
34 -83 34 -22 0 -49 -10 -76 -30 -55 -40 -93 -49 -223 -49 -60 0 -143 -6 -182
-14 -40 -8 -73 -12 -73 -10 0 2 11 21 24 42 38 60 53 103 71 198 18 101 64
205 102 231 46 30 113 99 113 115 0 38 -162 54 -330 32z m-70 -217 c25 -27 26
-59 2 -89 -39 -47 -122 -16 -122 47 0 57 80 85 120 42z m-686 -45 c-51 -78
-96 -163 -109 -207 -32 -107 -12 -278 40 -357 39 -58 16 -52 -35 8 -42 51 -63
129 -64 238 -1 82 2 96 31 155 18 36 57 94 88 128 61 66 79 79 49 35z m-270
-642 c37 -7 96 -18 130 -26 33 -8 86 -15 116 -16 40 0 50 -3 35 -9 -32 -14
-162 -11 -290 6 -167 22 -313 15 -423 -22 -46 -15 -93 -35 -104 -43 -19 -16
-18 -18 56 -75 100 -76 208 -193 235 -253 42 -95 44 -98 83 -101 54 -5 89 18
214 138 97 93 229 200 247 200 3 0 -27 -33 -66 -73 -40 -40 -112 -116 -162
-169 -103 -111 -177 -155 -242 -145 -49 8 -70 31 -109 116 -40 86 -129 181
-264 280 -47 35 -86 66 -88 70 -4 10 96 66 163 91 122 45 305 57 469 31z m773
-107 c83 3 166 9 185 12 65 13 14 -15 -66 -36 -132 -34 -327 -21 -374 24 -11
11 -3 11 45 4 32 -6 126 -7 210 -4z"/>
<path d="M9970 10833 c-85 -31 -37 -94 82 -106 31 -4 71 -14 90 -22 29 -14 41
-14 98 -2 64 14 65 14 36 26 -16 6 -51 27 -77 46 -26 20 -63 42 -83 50 -34 15
-116 19 -146 8z"/>
<path d="M13995 10189 c-88 -38 -164 -70 -169 -72 -4 -1 24 -34 63 -72 40 -38
99 -104 133 -147 58 -73 62 -77 75 -58 30 43 62 128 72 190 18 107 13 232 -8
229 -3 -1 -78 -32 -166 -70z"/>
<path d="M10270 9899 c-36 -7 -132 -18 -163 -19 -26 0 -12 -21 77 -117 125
-134 335 -305 524 -427 l72 -47 39 30 c68 54 101 101 162 225 32 67 66 131 75
143 19 27 36 21 -162 62 -127 26 -234 54 -559 149 -16 5 -46 5 -65 1z"/>
<path d="M12185 9720 c-33 -4 -87 -8 -120 -9 -47 0 -73 -7 -123 -33 l-64 -33
4 -55 c5 -69 25 -111 88 -186 45 -52 69 -101 114 -228 5 -16 9 -16 23 -5 24
20 96 136 120 194 21 51 33 105 53 250 6 44 14 88 16 98 6 19 -5 20 -111 7z"/>
<path d="M8190 7265 l0 -1315 3810 0 3810 0 0 1315 0 1315 -3810 0 -3810 0 0
-1315z m1665 1080 l25 -24 0 -518 c-1 -556 1 -542 -52 -562 -31 -12 -68 5 -85
39 -16 32 -19 994 -3 1036 22 57 75 70 115 29z m2173 5 c21 -20 22 -28 22
-222 l0 -201 33 27 c17 15 57 39 87 54 47 23 67 27 145 27 78 0 97 -4 147 -28
196 -96 278 -352 179 -562 -39 -85 -91 -139 -169 -177 -123 -61 -264 -49 -369
32 l-53 40 0 -34 c0 -33 -18 -57 -53 -69 -22 -8 -72 16 -81 38 -3 9 -6 248 -6
531 l0 515 25 24 c29 30 64 32 93 5z m-2770 -44 c68 -19 181 -71 210 -98 26
-25 28 -55 6 -86 -20 -29 -62 -29 -122 2 -240 122 -520 58 -620 -141 -52 -104
-56 -283 -9 -387 71 -155 186 -227 367 -228 101 0 157 10 230 43 l45 20 -3
135 -3 134 -131 0 c-121 0 -134 2 -155 22 -28 26 -30 61 -3 88 18 18 33 20
197 20 241 0 223 20 223 -250 0 -237 1 -234 -88 -279 -130 -65 -335 -90 -467
-56 -240 62 -385 256 -388 520 -1 55 4 125 12 155 48 195 187 337 382 390 84
23 224 21 317 -4z m5236 -132 c12 -5 16 -21 16 -74 l0 -68 101 -4 c111 -3 129
-13 129 -69 0 -46 -31 -59 -138 -59 l-93 0 3 -255 c2 -171 7 -258 14 -265 21
-21 86 -29 137 -18 47 10 51 9 75 -16 58 -58 -16 -114 -151 -115 -108 -1 -186
44 -207 118 -5 20 -10 152 -10 293 l0 257 -61 3 c-46 2 -65 8 -73 21 -9 15 6
35 110 137 66 66 123 120 126 120 4 0 13 -3 22 -6z m-3904 -166 c118 -54 197
-173 207 -310 9 -116 19 -112 -308 -116 -261 -3 -269 -4 -269 -23 0 -57 67
-148 128 -172 87 -35 217 -30 316 12 36 16 47 17 73 6 36 -15 48 -51 28 -82
-17 -26 -98 -66 -167 -84 -74 -18 -241 -7 -310 21 -102 40 -179 137 -208 259
-18 76 -8 221 19 293 39 100 123 182 220 213 72 23 203 15 271 -17z m906 17
c59 -17 122 -75 155 -143 23 -45 24 -58 27 -311 2 -145 1 -274 -2 -287 -7 -28
-57 -57 -83 -47 -53 18 -53 19 -53 267 -1 127 -5 251 -9 275 -17 87 -69 126
-168 124 -74 -1 -144 -35 -203 -100 l-40 -43 0 -243 c0 -232 -1 -245 -20 -262
-29 -26 -79 -24 -102 4 -17 22 -18 48 -18 374 0 346 0 351 22 374 49 53 118
16 118 -63 l0 -47 43 40 c24 22 56 48 70 58 67 43 176 56 263 30z m1856 -19
c119 -56 199 -183 202 -319 2 -110 10 -107 -315 -107 l-269 0 6 -27 c19 -80
80 -150 151 -174 64 -22 198 -16 273 13 75 29 116 23 126 -17 11 -46 0 -59
-80 -100 -73 -37 -86 -40 -179 -43 -165 -7 -249 20 -335 108 -132 134 -141
412 -17 574 33 44 93 85 158 108 76 27 203 20 279 -16z m809 23 c31 -16 42
-55 24 -89 -16 -31 -26 -35 -109 -44 -59 -7 -121 -42 -165 -91 l-31 -36 0
-239 c0 -131 -3 -246 -6 -255 -4 -8 -19 -22 -35 -30 -33 -18 -72 -7 -88 24 -7
13 -11 142 -11 370 0 338 1 352 20 371 48 48 120 9 120 -65 l0 -41 56 53 c73
70 171 101 225 72z m1189 -17 c68 -23 92 -56 70 -96 -19 -36 -44 -40 -133 -22
-90 19 -133 20 -192 5 -61 -15 -95 -49 -95 -93 0 -49 29 -68 167 -106 138 -38
184 -59 235 -108 109 -104 46 -299 -113 -346 -67 -20 -198 -20 -273 -1 -133
35 -180 74 -154 130 17 38 51 41 127 14 51 -19 86 -24 156 -24 108 0 147 17
165 69 21 66 4 77 -199 136 -66 20 -133 46 -160 64 -101 68 -120 201 -44 304
30 40 61 61 127 84 67 24 234 19 316 -10z m-3229 -1213 c21 -7 52 -24 69 -38
30 -26 30 -26 11 -50 l-18 -24 -31 23 c-45 33 -128 39 -163 11 -15 -11 -29
-31 -31 -44 -9 -48 8 -66 114 -116 58 -27 116 -63 133 -80 26 -28 30 -40 30
-89 0 -102 -69 -161 -190 -162 -65 0 -145 30 -177 67 -17 19 -17 20 5 41 l24
22 28 -22 c64 -50 180 -54 218 -7 24 30 22 81 -5 106 -13 11 -66 41 -119 66
-105 50 -129 75 -137 142 -12 112 111 192 239 154z m-546 -34 l0 -30 -123 -3
-122 -3 0 -89 0 -90 106 0 105 0 -3 -32 -3 -33 -103 0 -102 0 0 -122 0 -123
-40 0 -40 0 0 280 0 280 163 -2 162 -3 0 -30z m168 21 c3 -8 6 -134 7 -280 l1
-266 -41 0 -40 0 0 280 0 280 34 0 c20 0 36 -6 39 -14z m677 -101 l0 -115 125
0 125 0 0 115 0 115 40 0 40 0 0 -280 0 -280 -40 0 -40 0 0 130 0 130 -125 0
-125 0 0 -130 0 -130 -40 0 -40 0 0 273 c0 151 3 277 7 280 3 4 21 7 40 7 l33
0 0 -115z"/>
<path d="M12260 7899 c-70 -8 -102 -21 -162 -65 l-48 -36 0 -164 0 -164 43
-31 c72 -54 125 -72 202 -72 150 0 245 104 245 268 0 178 -113 284 -280 264z"/>
<path d="M10385 7911 c-93 -23 -165 -104 -165 -186 l0 -25 220 0 c121 0 220 4
220 8 0 5 -7 31 -15 59 -20 68 -85 127 -156 142 -55 12 -61 12 -104 2z"/>
<path d="M13131 7908 c-62 -14 -133 -86 -150 -152 -6 -27 -10 -50 -8 -52 2 -3
103 -3 224 -2 l220 3 -12 48 c-16 62 -41 95 -96 129 -51 31 -116 40 -178 26z"/>
</g>
</svg>
